<svg version="1.1" xmlns="http://www.w3.org/2000/svg" viewBox="0 0 1320 1018" width="1320" height="1018" class="excalidraw-svg"><!-- svg-source:excalidraw --><metadata></metadata><defs><style class="style-fonts">
      </style></defs><rect x="0" y="0" width="1320" height="1018" fill="#ffffff"></rect><g stroke-linecap="round" transform="translate(410 10) rotate(0 200 20)"><path d="M0 0 L400 0 L400 40 L0 40" stroke="none" stroke-width="0" fill="#ffc9c9"></path><path d="M0 0 C158.8 0, 317.6 0, 400 0 M0 0 C106.93 0, 213.87 0, 400 0 M400 0 C400 12.27, 400 24.54, 400 40 M400 0 C400 10.02, 400 20.04, 400 40 M400 40 C255.25 40, 110.5 40, 0 40 M400 40 C285.67 40, 171.33 40, 0 40 M0 40 C0 29.08, 0 18.16, 0 0 M0 40 C0 28.25, 0 16.5, 0 0" stroke="#1e1e1e" stroke-width="1" fill="none"></path></g><g transform="translate(441.583984375 23.100000000000023) rotate(0 168.416015625 6.900000000000006)"><text x="168.416015625" y="10.140234374999999" font-family="Helvetica, sans-serif, Segoe UI Emoji" font-size="12px" fill="#1e1e1e" text-anchor="middle" style="white-space: pre;" direction="ltr" dominant-baseline="alphabetic">Unable to build stable artifacts from rust-lang/rust stable branch</text></g><g stroke-linecap="round" transform="translate(410 90) rotate(0 200 19)"><path d="M0 0 L400 0 L400 38 L0 38" stroke="none" stroke-width="0" fill="#ffffff"></path><path d="M0 0 C130.74 0, 261.49 0, 400 0 M0 0 C156.12 0, 312.24 0, 400 0 M400 0 C400 11.45, 400 22.9, 400 38 M400 0 C400 12.24, 400 24.48, 400 38 M400 38 C311.72 38, 223.44 38, 0 38 M400 38 C310.52 38, 221.04 38, 0 38 M0 38 C0 28.9, 0 19.8, 0 0 M0 38 C0 26.89, 0 15.77, 0 0" stroke="#1e1e1e" stroke-width="1" fill="none"></path></g><g transform="translate(563.6376953125 102.10000000000002) rotate(0 46.3623046875 6.900000000000006)"><text x="46.3623046875" y="10.140234374999999" font-family="Helvetica, sans-serif, Segoe UI Emoji" font-size="12px" fill="#1e1e1e" text-anchor="middle" style="white-space: pre;" direction="ltr" dominant-baseline="alphabetic">dist-* jobs outage</text></g><g stroke-linecap="round"><g transform="translate(610.04 84.5) rotate(0 0 -14.5)"><path d="M0 0 C0 -4.83, 0 -24.17, 0 -29 M0 0 C0 -4.83, 0 -24.17, 0 -29" stroke="#1e1e1e" stroke-width="1" fill="none"></path></g><g transform="translate(610.04 84.5) rotate(0 0 -14.5)"><path d="M0 -29 L6.13 -15.86 L-6.13 -15.86 L0 -29" stroke="none" stroke-width="0" fill="#1e1e1e" fill-rule="evenodd"></path><path d="M0 -29 C2.2 -24.27, 4.41 -19.55, 6.13 -15.86 M0 -29 C2.2 -24.27, 4.41 -19.55, 6.13 -15.86 M6.13 -15.86 C1.8 -15.86, -2.52 -15.86, -6.13 -15.86 M6.13 -15.86 C3.31 -15.86, 0.5 -15.86, -6.13 -15.86 M-6.13 -15.86 C-4.47 -19.42, -2.81 -22.97, 0 -29 M-6.13 -15.86 C-4.2 -19.98, -2.28 -24.11, 0 -29 M0 -29 C0 -29, 0 -29, 0 -29 M0 -29 C0 -29, 0 -29, 0 -29" stroke="#1e1e1e" stroke-width="1" fill="none"></path></g></g><mask></mask><g stroke-linecap="round" transform="translate(450 290) rotate(0 200 19)"><path d="M0 0 L400 0 L400 38 L0 38" stroke="none" stroke-width="0" fill="#ffffff"></path><path d="M0 0 C125.56 0, 251.13 0, 400 0 M0 0 C106.14 0, 212.29 0, 400 0 M400 0 C400 8.02, 400 16.05, 400 38 M400 0 C400 14.04, 400 28.08, 400 38 M400 38 C284.75 38, 169.51 38, 0 38 M400 38 C241.87 38, 83.73 38, 0 38 M0 38 C0 27.93, 0 17.86, 0 0 M0 38 C0 27.69, 0 17.38, 0 0" stroke="#1e1e1e" stroke-width="1" fill="none"></path></g><g transform="translate(458.251953125 295.2) rotate(0 191.748046875 13.799999999999997)"><text x="191.748046875" y="10.140234374999999" font-family="Helvetica, sans-serif, Segoe UI Emoji" font-size="12px" fill="#1e1e1e" text-anchor="middle" style="white-space: pre;" direction="ltr" dominant-baseline="alphabetic">crosstool-ng found known-good kernel archive filenames in ci-mirrors for</text><text x="191.748046875" y="23.940234374999996" font-family="Helvetica, sans-serif, Segoe UI Emoji" font-size="12px" fill="#1e1e1e" text-anchor="middle" style="white-space: pre;" direction="ltr" dominant-baseline="alphabetic">needed known-good kernel versions but checksum mismatched</text></g><g stroke-linecap="round" transform="translate(510 170) rotate(0 100 12)"><path d="M0 0 L200 0 L200 24 L0 24" stroke="none" stroke-width="0" fill="#ffec99"></path><path d="M0 0 C47.7 0, 95.4 0, 200 0 M0 0 C58.48 0, 116.95 0, 200 0 M200 0 C200 7.82, 200 15.64, 200 24 M200 0 C200 5.06, 200 10.12, 200 24 M200 24 C158.17 24, 116.33 24, 0 24 M200 24 C148.42 24, 96.84 24, 0 24 M0 24 C0 18.23, 0 12.46, 0 0 M0 24 C0 16.22, 0 8.44, 0 0" stroke="#1e1e1e" stroke-width="1" fill="none"></path></g><g transform="translate(597.33203125 175.10000000000002) rotate(0 12.66796875 6.900000000000006)"><text x="12.66796875" y="10.140234374999999" font-family="Helvetica, sans-serif, Segoe UI Emoji" font-size="12px" fill="#1e1e1e" text-anchor="middle" style="white-space: pre;" direction="ltr" dominant-baseline="alphabetic">AND</text></g><g stroke-linecap="round"><g transform="translate(609.9 164.49999999999994) rotate(0 0 -15.499999999999972)"><path d="M0 0 C0 -9.55, 0 -19.09, 0 -31 M0 0 C0 -10.14, 0 -20.28, 0 -31" stroke="#1e1e1e" stroke-width="1" fill="none"></path></g><g transform="translate(609.9 164.49999999999994) rotate(0 0 -15.499999999999972)"><path d="M0 -31 L6.34 -17.41 L-6.34 -17.41 L0 -31" stroke="none" stroke-width="0" fill="#1e1e1e" fill-rule="evenodd"></path><path d="M0 -31 C1.95 -26.81, 3.9 -22.63, 6.34 -17.41 M0 -31 C2.07 -26.55, 4.15 -22.11, 6.34 -17.41 M6.34 -17.41 C2.85 -17.41, -0.65 -17.41, -6.34 -17.41 M6.34 -17.41 C2.44 -17.41, -1.46 -17.41, -6.34 -17.41 M-6.34 -17.41 C-4.61 -21.12, -2.87 -24.84, 0 -31 M-6.34 -17.41 C-4.32 -21.73, -2.31 -26.05, 0 -31 M0 -31 C0 -31, 0 -31, 0 -31 M0 -31 C0 -31, 0 -31, 0 -31" stroke="#1e1e1e" stroke-width="1" fill="none"></path></g></g><mask></mask><g stroke-linecap="round" transform="translate(210 290) rotate(0 100 19)"><path d="M0 0 L200 0 L200 38 L0 38" stroke="none" stroke-width="0" fill="#ffffff"></path><path d="M0 0 C54.96 0, 109.93 0, 200 0 M0 0 C41.94 0, 83.88 0, 200 0 M200 0 C200 7.68, 200 15.35, 200 38 M200 0 C200 8.86, 200 17.71, 200 38 M200 38 C135.18 38, 70.36 38, 0 38 M200 38 C138.59 38, 77.18 38, 0 38 M0 38 C0 23.05, 0 8.1, 0 0 M0 38 C0 24.24, 0 10.47, 0 0" stroke="#1e1e1e" stroke-width="1" fill="none"></path></g><g transform="translate(220.6240234375 302.1) rotate(0 89.3759765625 6.900000000000006)"><text x="89.3759765625" y="10.140234374999999" font-family="Helvetica, sans-serif, Segoe UI Emoji" font-size="12px" fill="#1e1e1e" text-anchor="middle" style="white-space: pre;" direction="ltr" dominant-baseline="alphabetic">failing dist-* jobs use crosstool-ng</text></g><g stroke-linecap="round"><g transform="translate(309.95 284.5) rotate(0 149.97500000000002 -42.50000000000006)"><path d="M0 0 C0 -5.59, 0 -11.19, 0 -26.5 M0 0 C0 -9.79, 0 -19.58, 0 -26.5 M0 -26.5 C0 -37.17, 5.33 -42.5, 16 -42.5 M0 -26.5 C0 -37.17, 5.33 -42.5, 16 -42.5 M16 -42.5 C89.27 -42.5, 162.54 -42.5, 283.95 -42.5 M16 -42.5 C101.21 -42.5, 186.41 -42.5, 283.95 -42.5 M283.95 -42.5 C294.62 -42.5, 299.95 -47.83, 299.95 -58.5 M283.95 -42.5 C294.62 -42.5, 299.95 -47.83, 299.95 -58.5 M299.95 -58.5 C299.95 -68.61, 299.95 -78.72, 299.95 -85 M299.95 -58.5 C299.95 -65.43, 299.95 -72.35, 299.95 -85" stroke="#1e1e1e" stroke-width="1" fill="none"></path></g></g><mask></mask><g stroke-linecap="round"><g transform="translate(649.9 284.5) rotate(0 -20 -42.50000000000006)"><path d="M0 0 C0 -8.24, 0 -16.49, 0 -26.5 M0 0 C0 -6.92, 0 -13.84, 0 -26.5 M0 -26.5 C0 -37.17, -5.33 -42.5, -16 -42.5 M0 -26.5 C0 -37.17, -5.33 -42.5, -16 -42.5 M-16 -42.5 C-18.59 -42.5, -21.19 -42.5, -24 -42.5 M-16 -42.5 C-18.46 -42.5, -20.91 -42.5, -24 -42.5 M-24 -42.5 C-34.67 -42.5, -40 -47.83, -40 -58.5 M-24 -42.5 C-34.67 -42.5, -40 -47.83, -40 -58.5 M-40 -58.5 C-40 -66.05, -40 -73.61, -40 -85 M-40 -58.5 C-40 -64.18, -40 -69.85, -40 -85" stroke="#1e1e1e" stroke-width="1" fill="none"></path></g></g><mask></mask><g stroke-linecap="round" transform="translate(550 370) rotate(0 100 12)"><path d="M0 0 L200 0 L200 24 L0 24" stroke="none" stroke-width="0" fill="#ffec99"></path><path d="M0 0 C65.94 0, 131.88 0, 200 0 M0 0 C64.03 0, 128.06 0, 200 0 M200 0 C200 5.17, 200 10.33, 200 24 M200 0 C200 6.91, 200 13.82, 200 24 M200 24 C139.74 24, 79.49 24, 0 24 M200 24 C123.64 24, 47.27 24, 0 24 M0 24 C0 14.92, 0 5.84, 0 0 M0 24 C0 15.19, 0 6.37, 0 0" stroke="#1e1e1e" stroke-width="1" fill="none"></path></g><g transform="translate(637.33203125 375.1) rotate(0 12.66796875 6.899999999999999)"><text x="12.66796875" y="10.140234374999999" font-family="Helvetica, sans-serif, Segoe UI Emoji" font-size="12px" fill="#1e1e1e" text-anchor="middle" style="white-space: pre;" direction="ltr" dominant-baseline="alphabetic">AND</text></g><g stroke-linecap="round"><g transform="translate(650.0226190476191 364.5) rotate(0 0.007380952380955819 -15.5)"><path d="M0 0 C0 -5.17, 0.01 -25.83, 0.01 -31 M0 0 C0 -5.17, 0.01 -25.83, 0.01 -31" stroke="#1e1e1e" stroke-width="1" fill="none"></path></g><g transform="translate(650.0226190476191 364.5) rotate(0 0.007380952380955819 -15.5)"><path d="M0.01 -31 L6.35 -17.4 L-6.33 -17.41 L0.01 -31" stroke="none" stroke-width="0" fill="#1e1e1e" fill-rule="evenodd"></path><path d="M0.01 -31 C1.55 -27.7, 3.09 -24.4, 6.35 -17.4 M0.01 -31 C2.17 -26.36, 4.33 -21.73, 6.35 -17.4 M6.35 -17.4 C1.93 -17.4, -2.49 -17.41, -6.33 -17.41 M6.35 -17.4 C1.43 -17.4, -3.5 -17.41, -6.33 -17.41 M-6.33 -17.41 C-4.07 -22.24, -1.82 -27.07, 0.01 -31 M-6.33 -17.41 C-4.12 -22.15, -1.9 -26.89, 0.01 -31 M0.01 -31 C0.01 -31, 0.01 -31, 0.01 -31 M0.01 -31 C0.01 -31, 0.01 -31, 0.01 -31" stroke="#1e1e1e" stroke-width="1" fill="none"></path></g></g><mask></mask><g stroke-linecap="round" transform="translate(250 490) rotate(0 100 40)"><path d="M0 0 L200 0 L200 80 L0 80" stroke="none" stroke-width="0" fill="#d0bfff"></path><path d="M0 0 C78.23 0, 156.46 0, 200 0 M0 0 C52.8 0, 105.6 0, 200 0 M200 0 C200 17.06, 200 34.11, 200 80 M200 0 C200 24.54, 200 49.08, 200 80 M200 80 C146.1 80, 92.21 80, 0 80 M200 80 C157.55 80, 115.1 80, 0 80 M0 80 C0 55.63, 0 31.25, 0 0 M0 80 C0 57.89, 0 35.77, 0 0" stroke="#1e1e1e" stroke-width="1" fill="none"></path></g><g transform="translate(261.9482421875 509.3) rotate(0 88.0517578125 20.700000000000003)"><text x="88.0517578125" y="10.140234374999999" font-family="Helvetica, sans-serif, Segoe UI Emoji" font-size="12px" fill="#1e1e1e" text-anchor="middle" style="white-space: pre;" direction="ltr" dominant-baseline="alphabetic">ci-mirrors previously did not have</text><text x="88.0517578125" y="23.940234374999996" font-family="Helvetica, sans-serif, Segoe UI Emoji" font-size="12px" fill="#1e1e1e" text-anchor="middle" style="white-space: pre;" direction="ltr" dominant-baseline="alphabetic">these known-good version kernel</text><text x="88.0517578125" y="37.740234375" font-family="Helvetica, sans-serif, Segoe UI Emoji" font-size="12px" fill="#1e1e1e" text-anchor="middle" style="white-space: pre;" direction="ltr" dominant-baseline="alphabetic">artifacts available</text></g><g stroke-linecap="round" transform="translate(10 490) rotate(0 100 40)"><path d="M0 0 L200 0 L200 80 L0 80" stroke="none" stroke-width="0" fill="#ffffff"></path><path d="M0 0 C61.64 0, 123.28 0, 200 0 M0 0 C49.19 0, 98.39 0, 200 0 M200 0 C200 31.67, 200 63.35, 200 80 M200 0 C200 26.72, 200 53.43, 200 80 M200 80 C143.96 80, 87.92 80, 0 80 M200 80 C148.56 80, 97.11 80, 0 80 M0 80 C0 49.61, 0 19.23, 0 0 M0 80 C0 60.01, 0 40.01, 0 0" stroke="#1e1e1e" stroke-width="1" fill="none"></path></g><g transform="translate(22.63671875 509.3) rotate(0 87.36328125 20.700000000000003)"><text x="87.36328125" y="10.140234374999999" font-family="Helvetica, sans-serif, Segoe UI Emoji" font-size="12px" fill="#1e1e1e" text-anchor="middle" style="white-space: pre;" direction="ltr" dominant-baseline="alphabetic">ci-mirrors is one of the candidate</text><text x="87.36328125" y="23.940234374999996" font-family="Helvetica, sans-serif, Segoe UI Emoji" font-size="12px" fill="#1e1e1e" text-anchor="middle" style="white-space: pre;" direction="ltr" dominant-baseline="alphabetic">mirrors searched by crosstool-ng</text><text x="87.36328125" y="37.740234375" font-family="Helvetica, sans-serif, Segoe UI Emoji" font-size="12px" fill="#1e1e1e" text-anchor="middle" style="white-space: pre;" direction="ltr" dominant-baseline="alphabetic">for known-good version artifacts</text></g><g stroke-linecap="round"><g transform="translate(109.89999999999998 484.5) rotate(0 270 -42.5)"><path d="M0 0 C0 -9.54, 0 -19.08, 0 -26.5 M0 0 C0 -7.18, 0 -14.35, 0 -26.5 M0 -26.5 C0 -37.17, 5.33 -42.5, 16 -42.5 M0 -26.5 C0 -37.17, 5.33 -42.5, 16 -42.5 M16 -42.5 C183.79 -42.5, 351.59 -42.5, 524 -42.5 M16 -42.5 C141.88 -42.5, 267.76 -42.5, 524 -42.5 M524 -42.5 C534.67 -42.5, 540 -47.83, 540 -58.5 M524 -42.5 C534.67 -42.5, 540 -47.83, 540 -58.5 M540 -58.5 C540 -65.36, 540 -72.22, 540 -85 M540 -58.5 C540 -64.37, 540 -70.24, 540 -85" stroke="#1e1e1e" stroke-width="1" fill="none"></path></g></g><mask></mask><g stroke-linecap="round"><g transform="translate(349.9 484.5) rotate(0 150 -42.5)"><path d="M0 0 C0 -5.65, 0 -11.3, 0 -26.5 M0 0 C0 -8.13, 0 -16.26, 0 -26.5 M0 -26.5 C0 -37.17, 5.33 -42.5, 16 -42.5 M0 -26.5 C0 -37.17, 5.33 -42.5, 16 -42.5 M16 -42.5 C91.09 -42.5, 166.18 -42.5, 284 -42.5 M16 -42.5 C84.93 -42.5, 153.87 -42.5, 284 -42.5 M284 -42.5 C294.67 -42.5, 300 -47.83, 300 -58.5 M284 -42.5 C294.67 -42.5, 300 -47.83, 300 -58.5 M300 -58.5 C300 -66.35, 300 -74.19, 300 -85 M300 -58.5 C300 -66.03, 300 -73.57, 300 -85" stroke="#1e1e1e" stroke-width="1" fill="none"></path></g></g><mask></mask><g stroke-linecap="round" transform="translate(490 490) rotate(0 100 40)"><path d="M0 0 L200 0 L200 80 L0 80" stroke="none" stroke-width="0" fill="#ffffff"></path><path d="M0 0 C79.19 0, 158.37 0, 200 0 M0 0 C66.79 0, 133.58 0, 200 0 M200 0 C200 22.42, 200 44.83, 200 80 M200 0 C200 20.58, 200 41.15, 200 80 M200 80 C124.03 80, 48.07 80, 0 80 M200 80 C150.02 80, 100.03 80, 0 80 M0 80 C0 57.26, 0 34.52, 0 0 M0 80 C0 48.19, 0 16.38, 0 0" stroke="#1e1e1e" stroke-width="1" fill="none"></path></g><g transform="translate(497.966796875 502.4) rotate(0 92.033203125 27.599999999999994)"><text x="92.033203125" y="10.140234374999999" font-family="Helvetica, sans-serif, Segoe UI Emoji" font-size="12px" fill="#1e1e1e" text-anchor="middle" style="white-space: pre;" direction="ltr" dominant-baseline="alphabetic">crosstool-ng will search for known-</text><text x="92.033203125" y="23.940234374999996" font-family="Helvetica, sans-serif, Segoe UI Emoji" font-size="12px" fill="#1e1e1e" text-anchor="middle" style="white-space: pre;" direction="ltr" dominant-baseline="alphabetic">good artifacts from set of mirrors,</text><text x="92.033203125" y="37.740234375" font-family="Helvetica, sans-serif, Segoe UI Emoji" font-size="12px" fill="#1e1e1e" text-anchor="middle" style="white-space: pre;" direction="ltr" dominant-baseline="alphabetic">built-in and custom, trying each</text><text x="92.033203125" y="51.540234375" font-family="Helvetica, sans-serif, Segoe UI Emoji" font-size="12px" fill="#1e1e1e" text-anchor="middle" style="white-space: pre;" direction="ltr" dominant-baseline="alphabetic">mirror</text></g><g stroke-linecap="round"><g transform="translate(589.9000000000001 484.5) rotate(0 29.999999999999943 -42.5)"><path d="M0 0 C0 -7.14, 0 -14.28, 0 -26.5 M0 0 C0 -5.62, 0 -11.25, 0 -26.5 M0 -26.5 C0 -37.17, 5.33 -42.5, 16 -42.5 M0 -26.5 C0 -37.17, 5.33 -42.5, 16 -42.5 M16 -42.5 C26.64 -42.5, 37.27 -42.5, 44 -42.5 M16 -42.5 C23 -42.5, 30 -42.5, 44 -42.5 M44 -42.5 C54.67 -42.5, 60 -47.83, 60 -58.5 M44 -42.5 C54.67 -42.5, 60 -47.83, 60 -58.5 M60 -58.5 C60 -68.54, 60 -78.58, 60 -85 M60 -58.5 C60 -64.59, 60 -70.68, 60 -85" stroke="#1e1e1e" stroke-width="1" fill="none"></path></g></g><mask></mask><g stroke-linecap="round" transform="translate(730 490) rotate(0 100 40)"><path d="M0 0 L200 0 L200 80 L0 80" stroke="none" stroke-width="0" fill="#ffffff"></path><path d="M0 0 C69.04 0, 138.08 0, 200 0 M0 0 C65.31 0, 130.62 0, 200 0 M200 0 C200 27.17, 200 54.35, 200 80 M200 0 C200 23.58, 200 47.16, 200 80 M200 80 C125.54 80, 51.07 80, 0 80 M200 80 C143.88 80, 87.76 80, 0 80 M0 80 C0 51.27, 0 22.54, 0 0 M0 80 C0 53.42, 0 26.84, 0 0" stroke="#1e1e1e" stroke-width="1" fill="none"></path></g><g transform="translate(736.9501953125 502.4) rotate(0 93.0498046875 27.599999999999994)"><text x="93.0498046875" y="10.140234374999999" font-family="Helvetica, sans-serif, Segoe UI Emoji" font-size="12px" fill="#1e1e1e" text-anchor="middle" style="white-space: pre;" direction="ltr" dominant-baseline="alphabetic">crosstool-ng searches known-good</text><text x="93.0498046875" y="23.940234374999996" font-family="Helvetica, sans-serif, Segoe UI Emoji" font-size="12px" fill="#1e1e1e" text-anchor="middle" style="white-space: pre;" direction="ltr" dominant-baseline="alphabetic">versions + filenames under custom</text><text x="93.0498046875" y="37.740234375" font-family="Helvetica, sans-serif, Segoe UI Emoji" font-size="12px" fill="#1e1e1e" text-anchor="middle" style="white-space: pre;" direction="ltr" dominant-baseline="alphabetic">provided mirror first, before other</text><text x="93.0498046875" y="51.540234375" font-family="Helvetica, sans-serif, Segoe UI Emoji" font-size="12px" fill="#1e1e1e" text-anchor="middle" style="white-space: pre;" direction="ltr" dominant-baseline="alphabetic">preset mirrors like kernel.org</text></g><g stroke-linecap="round"><g transform="translate(829.9 484.5) rotate(0 -90.00000000000001 -42.5)"><path d="M0 0 C0 -8.88, 0 -17.76, 0 -26.5 M0 0 C0 -10.55, 0 -21.1, 0 -26.5 M0 -26.5 C0 -37.17, -5.33 -42.5, -16 -42.5 M0 -26.5 C0 -37.17, -5.33 -42.5, -16 -42.5 M-16 -42.5 C-63.71 -42.5, -111.41 -42.5, -164 -42.5 M-16 -42.5 C-60.92 -42.5, -105.84 -42.5, -164 -42.5 M-164 -42.5 C-174.67 -42.5, -180 -47.83, -180 -58.5 M-164 -42.5 C-174.67 -42.5, -180 -47.83, -180 -58.5 M-180 -58.5 C-180 -66.74, -180 -74.98, -180 -85 M-180 -58.5 C-180 -66.44, -180 -74.37, -180 -85" stroke="#1e1e1e" stroke-width="1" fill="none"></path></g></g><mask></mask><g stroke-linecap="round" transform="translate(250 610) rotate(0 100 40)"><path d="M0 0 C0 0, 0 0, 0 0 M0 0 C0 0, 0 0, 0 0 M-0.26 6.4 C1.82 4, 3.91 1.6, 4.99 0.36 M-0.26 6.4 C1.72 4.12, 3.71 1.83, 4.99 0.36 M0.13 12.04 C2.72 9.07, 5.31 6.09, 10.63 -0.03 M0.13 12.04 C4.28 7.27, 8.43 2.49, 10.63 -0.03 M-0.13 18.44 C4.08 13.59, 8.3 8.74, 15.62 0.33 M-0.13 18.44 C4.56 13.05, 9.24 7.66, 15.62 0.33 M0.27 24.08 C5.64 17.9, 11.01 11.73, 21.26 -0.07 M0.27 24.08 C8.49 14.62, 16.71 5.17, 21.26 -0.07 M0 30.48 C6.59 22.9, 13.18 15.32, 26.25 0.29 M0 30.48 C7.01 22.42, 14.02 14.36, 26.25 0.29 M-0.26 36.88 C7.21 28.29, 14.67 19.71, 31.89 -0.1 M-0.26 36.88 C6.27 29.37, 12.79 21.87, 31.89 -0.1 M0.14 42.52 C7.88 33.61, 15.63 24.7, 36.88 0.26 M0.14 42.52 C13.87 26.73, 27.6 10.93, 36.88 0.26 M-0.12 48.92 C13.72 32.99, 27.57 17.06, 42.52 -0.14 M-0.12 48.92 C10.78 36.37, 21.68 23.83, 42.52 -0.14 M0.27 54.56 C15.95 36.52, 31.64 18.48, 47.51 0.22 M0.27 54.56 C11.29 41.89, 22.3 29.21, 47.51 0.22 M0.01 60.96 C16.19 42.34, 32.37 23.73, 53.15 -0.17 M0.01 60.96 C10.89 48.44, 21.78 35.92, 53.15 -0.17 M-0.25 67.36 C18.53 45.75, 37.32 24.14, 58.14 0.19 M-0.25 67.36 C22.49 41.2, 45.23 15.04, 58.14 0.19 M0.14 73 C23.34 46.32, 46.53 19.64, 63.78 -0.21 M0.14 73 C21.34 48.62, 42.53 24.24, 63.78 -0.21 M-0.12 79.4 C14.26 62.86, 28.64 46.32, 68.77 0.15 M-0.12 79.4 C21.53 54.49, 43.19 29.58, 68.77 0.15 M4.21 80.51 C26.63 54.73, 49.04 28.94, 74.41 -0.24 M4.21 80.51 C28.88 52.13, 53.55 23.76, 74.41 -0.24 M9.86 80.12 C33.76 52.62, 57.67 25.12, 79.4 0.12 M9.86 80.12 C24.31 63.49, 38.77 46.86, 79.4 0.12 M14.84 80.48 C29.29 63.86, 43.74 47.24, 85.04 -0.28 M14.84 80.48 C42.85 48.26, 70.86 16.03, 85.04 -0.28 M20.49 80.08 C48.26 48.13, 76.04 16.17, 90.03 0.08 M20.49 80.08 C48.18 48.22, 75.87 16.37, 90.03 0.08 M25.47 80.44 C45.3 57.64, 65.13 34.83, 95.67 -0.31 M25.47 80.44 C42.54 60.81, 59.61 41.18, 95.67 -0.31 M31.12 80.05 C56.86 50.43, 82.61 20.81, 100.66 0.05 M31.12 80.05 C54.88 52.71, 78.65 25.37, 100.66 0.05 M36.1 80.41 C52.22 61.86, 68.34 43.32, 106.3 -0.34 M36.1 80.41 C55.69 57.87, 75.28 35.34, 106.3 -0.34 M41.75 80.01 C67.65 50.21, 93.56 20.41, 111.29 0.02 M41.75 80.01 C57.24 62.19, 72.74 44.36, 111.29 0.02 M46.73 80.37 C71.05 52.4, 95.37 24.42, 116.27 0.38 M46.73 80.37 C69.7 53.95, 92.67 27.52, 116.27 0.38 M52.38 79.98 C69.38 60.41, 86.39 40.85, 121.92 -0.02 M52.38 79.98 C77 51.65, 101.62 23.33, 121.92 -0.02 M57.36 80.34 C82.87 50.99, 108.39 21.64, 126.91 0.34 M57.36 80.34 C74.65 60.46, 91.93 40.58, 126.91 0.34 M62.35 80.7 C86.67 52.72, 110.99 24.75, 132.55 -0.05 M62.35 80.7 C88.75 50.33, 115.15 19.96, 132.55 -0.05 M67.99 80.31 C83.78 62.14, 99.57 43.98, 137.54 0.31 M67.99 80.31 C89.79 55.23, 111.58 30.16, 137.54 0.31 M72.98 80.67 C98.26 51.59, 123.53 22.51, 143.18 -0.09 M72.98 80.67 C91.07 59.86, 109.15 39.05, 143.18 -0.09 M78.62 80.27 C99.36 56.41, 120.11 32.55, 148.17 0.27 M78.62 80.27 C94.81 61.65, 111 43.02, 148.17 0.27 M83.61 80.63 C103.93 57.26, 124.24 33.89, 153.81 -0.12 M83.61 80.63 C104.37 56.75, 125.13 32.86, 153.81 -0.12 M89.25 80.24 C115 50.62, 140.75 20.99, 158.8 0.24 M89.25 80.24 C113.09 52.82, 136.92 25.4, 158.8 0.24 M94.24 80.6 C112.5 59.59, 130.76 38.58, 164.44 -0.16 M94.24 80.6 C116.38 55.13, 138.52 29.65, 164.44 -0.16 M99.88 80.2 C117.6 59.82, 135.31 39.44, 169.43 0.2 M99.88 80.2 C114.3 63.62, 128.71 47.04, 169.43 0.2 M104.87 80.56 C127.32 54.73, 149.78 28.9, 175.07 -0.19 M104.87 80.56 C123.81 58.77, 142.75 36.98, 175.07 -0.19 M110.51 80.17 C137.3 49.35, 164.09 18.53, 180.06 0.17 M110.51 80.17 C125.72 62.67, 140.93 45.17, 180.06 0.17 M115.5 80.53 C132.21 61.3, 148.93 42.07, 185.7 -0.23 M115.5 80.53 C132.37 61.13, 149.23 41.72, 185.7 -0.23 M121.14 80.13 C136.24 62.76, 151.35 45.39, 190.69 0.13 M121.14 80.13 C148.78 48.34, 176.41 16.55, 190.69 0.13 M126.13 80.49 C147.62 55.77, 169.11 31.04, 196.33 -0.26 M126.13 80.49 C142.71 61.42, 159.28 42.35, 196.33 -0.26 M131.77 80.1 C147.32 62.22, 162.86 44.34, 200 1.61 M131.77 80.1 C158.5 49.35, 185.24 18.6, 200 1.61 M136.76 80.46 C158 56.02, 179.25 31.58, 199.74 8.01 M136.76 80.46 C161.64 51.84, 186.52 23.21, 199.74 8.01 M142.4 80.06 C160.67 59.05, 178.93 38.04, 200.14 13.65 M142.4 80.06 C158.48 61.57, 174.56 43.07, 200.14 13.65 M147.39 80.42 C161.39 64.32, 175.38 48.23, 199.88 20.05 M147.39 80.42 C167.47 57.32, 187.55 34.22, 199.88 20.05 M153.03 80.03 C162.66 68.95, 172.29 57.88, 200.27 25.69 M153.03 80.03 C170.15 60.34, 187.26 40.66, 200.27 25.69 M158.02 80.39 C172.76 63.43, 187.51 46.47, 200.01 32.09 M158.02 80.39 C174.51 61.42, 191 42.45, 200.01 32.09 M163.66 80 C172.08 70.32, 180.49 60.64, 199.75 38.49 M163.66 80 C177.23 64.39, 190.8 48.78, 199.75 38.49 M168.65 80.36 C180.29 66.96, 191.93 53.57, 200.14 44.13 M168.65 80.36 C179.58 67.78, 190.52 55.2, 200.14 44.13 M173.64 80.72 C183.33 69.57, 193.02 58.42, 199.88 50.53 M173.64 80.72 C181 72.24, 188.36 63.77, 199.88 50.53 M179.28 80.32 C183.96 74.94, 188.64 69.55, 200.27 56.17 M179.28 80.32 C185.5 73.17, 191.71 66.02, 200.27 56.17 M184.27 80.68 C190.54 73.46, 196.82 66.24, 200.01 62.57 M184.27 80.68 C188.44 75.88, 192.62 71.07, 200.01 62.57 M189.91 80.29 C193.19 76.51, 196.48 72.73, 199.75 68.97 M189.91 80.29 C192.05 77.82, 194.19 75.36, 199.75 68.97 M194.9 80.65 C196.63 78.66, 198.36 76.66, 200.15 74.61 M194.9 80.65 C196.72 78.55, 198.54 76.45, 200.15 74.61 M-0.37 79.68 C-0.37 79.68, -0.37 79.68, -0.37 79.68 M-0.37 79.68 C-0.37 79.68, -0.37 79.68, -0.37 79.68 M6.03 79.94 C3.66 77.88, 1.28 75.82, -0.01 74.69 M6.03 79.94 C3.79 77.99, 1.54 76.04, -0.01 74.69 M12.43 80.2 C9.69 77.82, 6.95 75.44, 0.35 69.71 M12.43 80.2 C8.42 76.72, 4.41 73.24, 0.35 69.71 M18.07 79.81 C13.7 76.01, 9.33 72.21, -0.04 64.06 M18.07 79.81 C14.23 76.47, 10.38 73.13, -0.04 64.06 M24.47 80.07 C18.1 74.53, 11.72 68.99, 0.32 59.08 M24.47 80.07 C16.7 73.32, 8.94 66.57, 0.32 59.08 M30.11 79.68 C19.6 70.54, 9.09 61.4, -0.07 53.43 M30.11 79.68 C18.93 69.95, 7.74 60.23, -0.07 53.43 M36.51 79.94 C26.81 71.51, 17.12 63.08, 0.29 48.45 M36.51 79.94 C26.44 71.19, 16.38 62.44, 0.29 48.45 M42.91 80.2 C33.88 72.35, 24.85 64.5, -0.11 42.8 M42.91 80.2 C26.72 66.12, 10.52 52.05, -0.11 42.8 M48.55 79.81 C35.52 68.47, 22.48 57.14, 0.25 37.82 M48.55 79.81 C37.95 70.59, 27.34 61.37, 0.25 37.82 M54.95 80.07 C35.98 63.58, 17.02 47.09, -0.14 32.17 M54.95 80.07 C33.6 61.51, 12.25 42.95, -0.14 32.17 M60.59 79.67 C47.04 67.89, 33.48 56.11, 0.22 27.19 M60.59 79.67 C42.87 64.27, 25.15 48.86, 0.22 27.19 M66.99 79.93 C47.43 62.93, 27.88 45.93, -0.18 21.54 M66.99 79.93 C40.8 57.16, 14.6 34.39, -0.18 21.54 M73.39 80.2 C58.22 67.01, 43.05 53.82, 0.18 16.56 M73.39 80.2 C45.95 56.34, 18.51 32.49, 0.18 16.56 M79.03 79.8 C62.21 65.18, 45.4 50.56, -0.21 10.91 M79.03 79.8 C47.51 52.4, 15.98 24.99, -0.21 10.91 M85.43 80.06 C67.04 64.07, 48.64 48.08, 0.15 5.93 M85.43 80.06 C62.69 60.3, 39.95 40.53, 0.15 5.93 M91.83 80.32 C65.03 57.03, 38.23 33.73, -0.25 0.28 M91.83 80.32 C68.51 60.05, 45.18 39.78, -0.25 0.28 M97.47 79.93 C63.18 50.12, 28.9 20.32, 4.64 -0.77 M97.47 79.93 C69.6 55.7, 41.72 31.47, 4.64 -0.77 M103.87 80.19 C72.96 53.32, 42.04 26.45, 11.04 -0.5 M103.87 80.19 C82.81 61.89, 61.76 43.59, 11.04 -0.5 M109.51 79.8 C81.01 55.02, 52.5 30.24, 17.44 -0.24 M109.51 79.8 C78.65 52.97, 47.8 26.15, 17.44 -0.24 M115.91 80.06 C81.99 50.57, 48.06 21.08, 23.08 -0.64 M115.91 80.06 C95.78 62.56, 75.66 45.07, 23.08 -0.64 M122.31 80.32 C85.21 48.07, 48.12 15.83, 29.48 -0.38 M122.31 80.32 C89 51.37, 55.69 22.41, 29.48 -0.38 M127.95 79.92 C105.91 60.76, 83.86 41.6, 35.12 -0.77 M127.95 79.92 C95.47 51.69, 62.99 23.45, 35.12 -0.77 M134.35 80.19 C104.22 54, 74.1 27.81, 41.52 -0.51 M134.35 80.19 C107.71 57.03, 81.08 33.88, 41.52 -0.51 M139.99 79.79 C119.72 62.17, 99.45 44.55, 47.92 -0.25 M139.99 79.79 C104.92 49.31, 69.86 18.82, 47.92 -0.25 M146.39 80.05 C119.34 56.54, 92.3 33.03, 53.56 -0.64 M146.39 80.05 C112.66 50.74, 78.94 21.42, 53.56 -0.64 M152.79 80.31 C133.62 63.66, 114.46 47, 59.96 -0.38 M152.79 80.31 C125.63 56.71, 98.48 33.1, 59.96 -0.38 M158.43 79.92 C137.18 61.45, 115.93 42.98, 65.6 -0.78 M158.43 79.92 C125.02 50.88, 91.62 21.84, 65.6 -0.78 M164.83 80.18 C135.95 55.08, 107.07 29.98, 72 -0.51 M164.83 80.18 C137.36 56.3, 109.89 32.43, 72 -0.51 M170.47 79.79 C134.75 48.74, 99.03 17.69, 78.4 -0.25 M170.47 79.79 C135.79 49.64, 101.11 19.49, 78.4 -0.25 M176.87 80.05 C151.73 58.2, 126.6 36.35, 84.04 -0.65 M176.87 80.05 C155.51 61.48, 134.16 42.92, 84.04 -0.65 M183.27 80.31 C151.61 52.79, 119.95 25.27, 90.44 -0.39 M183.27 80.31 C160.81 60.79, 138.36 41.27, 90.44 -0.39 M188.91 79.91 C166.25 60.22, 143.59 40.52, 96.08 -0.78 M188.91 79.91 C155.28 50.68, 121.65 21.45, 96.08 -0.78 M195.31 80.18 C159.78 49.29, 124.25 18.4, 102.48 -0.52 M195.31 80.18 C166.36 55.02, 137.42 29.86, 102.48 -0.52 M200.2 79.13 C180.89 62.35, 161.59 45.57, 108.88 -0.26 M200.2 79.13 C164.78 48.34, 129.36 17.55, 108.88 -0.26 M200.56 74.14 C172.22 49.5, 143.88 24.87, 114.52 -0.65 M200.56 74.14 C177.25 53.88, 153.95 33.63, 114.52 -0.65 M200.16 68.5 C170.44 42.66, 140.73 16.83, 120.92 -0.39 M200.16 68.5 C181.91 52.63, 163.65 36.76, 120.92 -0.39 M200.52 63.51 C176.92 42.99, 153.31 22.47, 126.56 -0.79 M200.52 63.51 C176 42.19, 151.47 20.87, 126.56 -0.79 M200.88 58.52 C176.49 37.32, 152.1 16.12, 132.96 -0.52 M200.88 58.52 C184.49 44.27, 168.09 30.02, 132.96 -0.52 M200.49 52.88 C187.52 41.6, 174.55 30.33, 139.35 -0.26 M200.49 52.88 C186.14 40.41, 171.8 27.94, 139.35 -0.26 M200.85 47.89 C189.14 37.71, 177.43 27.53, 145 -0.66 M200.85 47.89 C189.64 38.15, 178.44 28.41, 145 -0.66 M200.45 42.25 C181.3 25.6, 162.14 8.95, 151.4 -0.4 M200.45 42.25 C188.24 31.64, 176.03 21.02, 151.4 -0.4 M200.81 37.26 C183.53 22.24, 166.25 7.22, 157.04 -0.79 M200.81 37.26 C186.98 25.24, 173.15 13.22, 157.04 -0.79 M200.42 31.62 C187.18 20.11, 173.95 8.61, 163.44 -0.53 M200.42 31.62 C186.69 19.69, 172.96 7.75, 163.44 -0.53 M200.78 26.63 C194.46 21.14, 188.15 15.66, 169.83 -0.27 M200.78 26.63 C193.87 20.62, 186.96 14.62, 169.83 -0.27 M200.38 20.99 C191.91 13.63, 183.44 6.26, 175.48 -0.66 M200.38 20.99 C192.25 13.92, 184.11 6.85, 175.48 -0.66 M200.74 16 C194.15 10.27, 187.57 4.55, 181.88 -0.4 M200.74 16 C193.44 9.65, 186.14 3.31, 181.88 -0.4 M200.35 10.36 C196.69 7.18, 193.04 4.01, 187.52 -0.8 M200.35 10.36 C195.62 6.25, 190.9 2.14, 187.52 -0.8 M200.71 5.37 C198.24 3.22, 195.77 1.07, 193.92 -0.53 M200.71 5.37 C198.68 3.61, 196.65 1.84, 193.92 -0.53" stroke="#a5d8ff" stroke-width="0.5" fill="none"></path><path d="M0 0 C51.35 0, 102.7 0, 200 0 M0 0 C50.34 0, 100.67 0, 200 0 M200 0 C200 28.2, 200 56.41, 200 80 M200 0 C200 30.23, 200 60.46, 200 80 M200 80 C151.72 80, 103.45 80, 0 80 M200 80 C143.68 80, 87.35 80, 0 80 M0 80 C0 56.1, 0 32.19, 0 0 M0 80 C0 52.13, 0 24.26, 0 0" stroke="#1e1e1e" stroke-width="1" fill="none"></path></g><g transform="translate(255.6201171875 622.4) rotate(0 94.3798828125 27.599999999999994)"><text x="94.3798828125" y="10.140234374999999" font-family="Helvetica, sans-serif, Segoe UI Emoji" font-size="12px" fill="#1e1e1e" text-anchor="middle" style="white-space: pre;" direction="ltr" dominant-baseline="alphabetic">known-good version kernel artifacts</text><text x="94.3798828125" y="23.940234374999996" font-family="Helvetica, sans-serif, Segoe UI Emoji" font-size="12px" fill="#1e1e1e" text-anchor="middle" style="white-space: pre;" direction="ltr" dominant-baseline="alphabetic">now available under ci-mirrors as</text><text x="94.3798828125" y="37.740234375" font-family="Helvetica, sans-serif, Segoe UI Emoji" font-size="12px" fill="#1e1e1e" text-anchor="middle" style="white-space: pre;" direction="ltr" dominant-baseline="alphabetic">part of mitigations for kernel.org</text><text x="94.3798828125" y="51.540234375" font-family="Helvetica, sans-serif, Segoe UI Emoji" font-size="12px" fill="#1e1e1e" text-anchor="middle" style="white-space: pre;" direction="ltr" dominant-baseline="alphabetic">mirror sync outage for RUST-MAIN</text></g><g stroke-linecap="round"><g transform="translate(349.9 604.5) rotate(0 0 -14.5)"><path d="M0 0 C0 -11.32, 0 -22.63, 0 -29 M0 0 C0 -9.74, 0 -19.49, 0 -29" stroke="#1e1e1e" stroke-width="1" fill="none"></path></g><g transform="translate(349.9 604.5) rotate(0 0 -14.5)"><path d="M0 -29 L6.13 -15.86 L-6.13 -15.86 L0 -29" stroke="none" stroke-width="0" fill="#1e1e1e" fill-rule="evenodd"></path><path d="M0 -29 C2.39 -23.87, 4.78 -18.74, 6.13 -15.86 M0 -29 C2.06 -24.58, 4.12 -20.17, 6.13 -15.86 M6.13 -15.86 C1.29 -15.86, -3.55 -15.86, -6.13 -15.86 M6.13 -15.86 C2.32 -15.86, -1.49 -15.86, -6.13 -15.86 M-6.13 -15.86 C-3.73 -21.01, -1.33 -26.15, 0 -29 M-6.13 -15.86 C-4.06 -20.29, -2 -24.72, 0 -29 M0 -29 C0 -29, 0 -29, 0 -29 M0 -29 C0 -29, 0 -29, 0 -29" stroke="#1e1e1e" stroke-width="1" fill="none"></path></g></g><mask></mask><g stroke-linecap="round" transform="translate(830 690) rotate(0 100 40)"><path d="M0 0 L200 0 L200 80 L0 80" stroke="none" stroke-width="0" fill="#ffffff"></path><path d="M0 0 C57.49 0, 114.98 0, 200 0 M0 0 C64.48 0, 128.95 0, 200 0 M200 0 C200 29.26, 200 58.53, 200 80 M200 0 C200 17.73, 200 35.46, 200 80 M200 80 C121.69 80, 43.38 80, 0 80 M200 80 C142.1 80, 84.2 80, 0 80 M0 80 C0 58.31, 0 36.62, 0 0 M0 80 C0 49.04, 0 18.09, 0 0" stroke="#1e1e1e" stroke-width="1" fill="none"></path></g><g transform="translate(835.6201171875 702.4) rotate(0 94.3798828125 27.599999999999994)"><text x="94.3798828125" y="10.140234374999999" font-family="Helvetica, sans-serif, Segoe UI Emoji" font-size="12px" fill="#1e1e1e" text-anchor="middle" style="white-space: pre;" direction="ltr" dominant-baseline="alphabetic">known-good version kernel artifacts</text><text x="94.3798828125" y="23.940234374999996" font-family="Helvetica, sans-serif, Segoe UI Emoji" font-size="12px" fill="#1e1e1e" text-anchor="middle" style="white-space: pre;" direction="ltr" dominant-baseline="alphabetic">found under ci-mirrors, but do not</text><text x="94.3798828125" y="37.740234375" font-family="Helvetica, sans-serif, Segoe UI Emoji" font-size="12px" fill="#1e1e1e" text-anchor="middle" style="white-space: pre;" direction="ltr" dominant-baseline="alphabetic">have same compression settings</text><text x="94.3798828125" y="51.540234375" font-family="Helvetica, sans-serif, Segoe UI Emoji" font-size="12px" fill="#1e1e1e" text-anchor="middle" style="white-space: pre;" direction="ltr" dominant-baseline="alphabetic">as "release" kernel artifacts </text></g><g stroke-linecap="round" transform="translate(1110 690) rotate(0 100 40)"><path d="M0 0 L200 0 L200 80 L0 80" stroke="none" stroke-width="0" fill="#ffffff"></path><path d="M0 0 C58.23 0, 116.47 0, 200 0 M0 0 C56.16 0, 112.31 0, 200 0 M200 0 C200 22.39, 200 44.77, 200 80 M200 0 C200 29.09, 200 58.18, 200 80 M200 80 C120.12 80, 40.25 80, 0 80 M200 80 C128.71 80, 57.41 80, 0 80 M0 80 C0 51.72, 0 23.44, 0 0 M0 80 C0 51.79, 0 23.59, 0 0" stroke="#1e1e1e" stroke-width="1" fill="none"></path></g><g transform="translate(1118.9482421875 709.3) rotate(0 91.0517578125 20.700000000000003)"><text x="91.0517578125" y="10.140234374999999" font-family="Helvetica, sans-serif, Segoe UI Emoji" font-size="12px" fill="#1e1e1e" text-anchor="middle" style="white-space: pre;" direction="ltr" dominant-baseline="alphabetic">dist-* job .defconfig did not specify</text><text x="91.0517578125" y="23.940234374999996" font-family="Helvetica, sans-serif, Segoe UI Emoji" font-size="12px" fill="#1e1e1e" text-anchor="middle" style="white-space: pre;" direction="ltr" dominant-baseline="alphabetic">which checksum algorithm to use,</text><text x="91.0517578125" y="37.740234375" font-family="Helvetica, sans-serif, Segoe UI Emoji" font-size="12px" fill="#1e1e1e" text-anchor="middle" style="white-space: pre;" direction="ltr" dominant-baseline="alphabetic">SHA512 happens to be picked</text></g><g stroke-linecap="round" transform="translate(970 490) rotate(0 100 40)"><path d="M0 0 L200 0 L200 80 L0 80" stroke="none" stroke-width="0" fill="#ffffff"></path><path d="M0 0 C78.92 0, 157.85 0, 200 0 M0 0 C77.13 0, 154.26 0, 200 0 M200 0 C200 29.59, 200 59.18, 200 80 M200 0 C200 17.2, 200 34.4, 200 80 M200 80 C156.14 80, 112.29 80, 0 80 M200 80 C122.2 80, 44.4 80, 0 80 M0 80 C0 52.23, 0 24.45, 0 0 M0 80 C0 57, 0 34, 0 0" stroke="#1e1e1e" stroke-width="1" fill="none"></path></g><g transform="translate(986.2900390625 509.3) rotate(0 83.7099609375 20.700000000000003)"><text x="83.7099609375" y="10.140234374999999" font-family="Helvetica, sans-serif, Segoe UI Emoji" font-size="12px" fill="#1e1e1e" text-anchor="middle" style="white-space: pre;" direction="ltr" dominant-baseline="alphabetic">SHA512 mismatch against</text><text x="83.7099609375" y="23.940234374999996" font-family="Helvetica, sans-serif, Segoe UI Emoji" font-size="12px" fill="#1e1e1e" text-anchor="middle" style="white-space: pre;" direction="ltr" dominant-baseline="alphabetic">crosstool-ng reference SHA512</text><text x="83.7099609375" y="37.740234375" font-family="Helvetica, sans-serif, Segoe UI Emoji" font-size="12px" fill="#1e1e1e" text-anchor="middle" style="white-space: pre;" direction="ltr" dominant-baseline="alphabetic">checksums</text></g><g stroke-linecap="round"><g transform="translate(1069.9 484.5) rotate(0 -210.00000000000003 -42.5)"><path d="M0 0 C0 -6.27, 0 -12.55, 0 -26.5 M0 0 C0 -6.32, 0 -12.64, 0 -26.5 M0 -26.5 C0 -37.17, -5.33 -42.5, -16 -42.5 M0 -26.5 C0 -37.17, -5.33 -42.5, -16 -42.5 M-16 -42.5 C-135.41 -42.5, -254.81 -42.5, -404 -42.5 M-16 -42.5 C-124.43 -42.5, -232.85 -42.5, -404 -42.5 M-404 -42.5 C-414.67 -42.5, -420 -47.83, -420 -58.5 M-404 -42.5 C-414.67 -42.5, -420 -47.83, -420 -58.5 M-420 -58.5 C-420 -68.04, -420 -77.58, -420 -85 M-420 -58.5 C-420 -68.8, -420 -79.09, -420 -85" stroke="#1e1e1e" stroke-width="1" fill="none"></path></g></g><mask></mask><g stroke-linecap="round" transform="translate(970 610) rotate(0 100 12)"><path d="M0 0 L200 0 L200 24 L0 24" stroke="none" stroke-width="0" fill="#ffec99"></path><path d="M0 0 C49.59 0, 99.17 0, 200 0 M0 0 C75.56 0, 151.12 0, 200 0 M200 0 C200 8.37, 200 16.73, 200 24 M200 0 C200 9.48, 200 18.95, 200 24 M200 24 C125.11 24, 50.21 24, 0 24 M200 24 C137.33 24, 74.66 24, 0 24 M0 24 C0 14.66, 0 5.31, 0 0 M0 24 C0 16.71, 0 9.42, 0 0" stroke="#1e1e1e" stroke-width="1" fill="none"></path></g><g transform="translate(1057.33203125 615.1) rotate(0 12.66796875 6.899999999999999)"><text x="12.66796875" y="10.140234374999999" font-family="Helvetica, sans-serif, Segoe UI Emoji" font-size="12px" fill="#1e1e1e" text-anchor="middle" style="white-space: pre;" direction="ltr" dominant-baseline="alphabetic">AND</text></g><g stroke-linecap="round"><g transform="translate(1069.9 604.5) rotate(0 0 -14.5)"><path d="M0 0 C0 -7.18, 0 -14.36, 0 -29 M0 0 C0 -6.68, 0 -13.37, 0 -29" stroke="#1e1e1e" stroke-width="1" fill="none"></path></g><g transform="translate(1069.9 604.5) rotate(0 0 -14.5)"><path d="M0 -29 L6.13 -15.86 L-6.13 -15.86 L0 -29" stroke="none" stroke-width="0" fill="#1e1e1e" fill-rule="evenodd"></path><path d="M0 -29 C1.52 -25.75, 3.03 -22.49, 6.13 -15.86 M0 -29 C1.41 -25.97, 2.82 -22.94, 6.13 -15.86 M6.13 -15.86 C2.9 -15.86, -0.33 -15.86, -6.13 -15.86 M6.13 -15.86 C2.64 -15.86, -0.85 -15.86, -6.13 -15.86 M-6.13 -15.86 C-4.73 -18.86, -3.33 -21.86, 0 -29 M-6.13 -15.86 C-4.89 -18.51, -3.66 -21.16, 0 -29 M0 -29 C0 -29, 0 -29, 0 -29 M0 -29 C0 -29, 0 -29, 0 -29" stroke="#1e1e1e" stroke-width="1" fill="none"></path></g></g><mask></mask><g stroke-linecap="round"><g transform="translate(929.9 684.5) rotate(0 70.00000000000001 -22.5)"><path d="M0 0 C0 -3.87, 0 -7.74, 0 -11.25 M0 0 C0 -3.84, 0 -7.67, 0 -11.25 M0 -11.25 C0 -18.75, 3.75 -22.5, 11.25 -22.5 M0 -11.25 C0 -18.75, 3.75 -22.5, 11.25 -22.5 M11.25 -22.5 C43.73 -22.5, 76.22 -22.5, 128.75 -22.5 M11.25 -22.5 C49.03 -22.5, 86.81 -22.5, 128.75 -22.5 M128.75 -22.5 C136.25 -22.5, 140 -26.25, 140 -33.75 M128.75 -22.5 C136.25 -22.5, 140 -26.25, 140 -33.75 M140 -33.75 C140 -36.78, 140 -39.81, 140 -45 M140 -33.75 C140 -36.37, 140 -38.99, 140 -45" stroke="#1e1e1e" stroke-width="1" fill="none"></path></g><g transform="translate(929.9 684.5) rotate(0 70.00000000000001 -22.5)"><path d="M140 -45 L144.75 -34.8 L135.25 -34.8 L140 -45" stroke="none" stroke-width="0" fill="#1e1e1e" fill-rule="evenodd"></path><path d="M140 -45 C141.63 -41.49, 143.27 -37.99, 144.75 -34.8 M140 -45 C141.62 -41.52, 143.24 -38.04, 144.75 -34.8 M144.75 -34.8 C142.17 -34.8, 139.58 -34.8, 135.25 -34.8 M144.75 -34.8 C141.12 -34.8, 137.48 -34.8, 135.25 -34.8 M135.25 -34.8 C136.35 -37.16, 137.45 -39.53, 140 -45 M135.25 -34.8 C136.53 -37.55, 137.81 -40.3, 140 -45 M140 -45 C140 -45, 140 -45, 140 -45 M140 -45 C140 -45, 140 -45, 140 -45" stroke="#1e1e1e" stroke-width="1" fill="none"></path></g></g><mask></mask><g stroke-linecap="round"><g transform="translate(1209.9 684.5) rotate(0 -70 -22.499999999999986)"><path d="M0 0 C0 -3.87, 0 -7.74, 0 -11.25 M0 0 C0 -4.38, 0 -8.75, 0 -11.25 M0 -11.25 C0 -18.75, -3.75 -22.5, -11.25 -22.5 M0 -11.25 C0 -18.75, -3.75 -22.5, -11.25 -22.5 M-11.25 -22.5 C-47.06 -22.5, -82.86 -22.5, -128.75 -22.5 M-11.25 -22.5 C-40.9 -22.5, -70.55 -22.5, -128.75 -22.5 M-128.75 -22.5 C-136.25 -22.5, -140 -26.25, -140 -33.75 M-128.75 -22.5 C-136.25 -22.5, -140 -26.25, -140 -33.75 M-140 -33.75 C-140 -36.69, -140 -39.64, -140 -45 M-140 -33.75 C-140 -36.15, -140 -38.55, -140 -45" stroke="#1e1e1e" stroke-width="1" fill="none"></path></g><g transform="translate(1209.9 684.5) rotate(0 -70 -22.499999999999986)"><path d="M-140 -45 L-135.25 -34.8 L-144.75 -34.8 L-140 -45" stroke="none" stroke-width="0" fill="#1e1e1e" fill-rule="evenodd"></path><path d="M-140 -45 C-138.36 -41.49, -136.73 -37.99, -135.25 -34.8 M-140 -45 C-138.15 -41.03, -136.3 -37.07, -135.25 -34.8 M-135.25 -34.8 C-137.86 -34.8, -140.47 -34.8, -144.75 -34.8 M-135.25 -34.8 C-138.64 -34.8, -142.04 -34.8, -144.75 -34.8 M-144.75 -34.8 C-143.34 -37.83, -141.93 -40.86, -140 -45 M-144.75 -34.8 C-142.89 -38.81, -141.02 -42.81, -140 -45 M-140 -45 C-140 -45, -140 -45, -140 -45 M-140 -45 C-140 -45, -140 -45, -140 -45" stroke="#1e1e1e" stroke-width="1" fill="none"></path></g></g><mask></mask><g stroke-linecap="round" transform="translate(510 970) rotate(0 200 19)"><path d="M0 0 C0 0, 0 0, 0 0 M0 0 C0 0, 0 0, 0 0 M-0.26 6.4 C1.6 4.25, 3.46 2.11, 4.99 0.36 M-0.26 6.4 C1.4 4.49, 3.06 2.58, 4.99 0.36 M0.13 12.04 C3.05 8.69, 5.96 5.34, 10.63 -0.03 M0.13 12.04 C2.61 9.19, 5.1 6.33, 10.63 -0.03 M-0.13 18.44 C3.2 14.61, 6.53 10.78, 15.62 0.33 M-0.13 18.44 C3.62 14.13, 7.37 9.81, 15.62 0.33 M0.27 24.08 C8.35 14.78, 16.44 5.47, 21.26 -0.07 M0.27 24.08 C8.3 14.84, 16.33 5.6, 21.26 -0.07 M0 30.48 C8.5 20.7, 17 10.93, 26.25 0.29 M0 30.48 C6.77 22.7, 13.53 14.92, 26.25 0.29 M-0.26 36.88 C7.88 27.51, 16.02 18.15, 31.89 -0.1 M-0.26 36.88 C8.47 26.84, 17.2 16.79, 31.89 -0.1 M4.07 37.99 C14.17 26.38, 24.27 14.76, 36.88 0.26 M4.07 37.99 C15.42 24.94, 26.76 11.89, 36.88 0.26 M9.06 38.35 C20.31 25.41, 31.56 12.47, 42.52 -0.14 M9.06 38.35 C16.09 30.26, 23.12 22.17, 42.52 -0.14 M14.7 37.96 C24.79 26.36, 34.87 14.76, 47.51 0.22 M14.7 37.96 C24.39 26.81, 34.08 15.67, 47.51 0.22 M19.69 38.32 C30.3 26.11, 40.91 13.91, 53.15 -0.17 M19.69 38.32 C27.3 29.57, 34.9 20.82, 53.15 -0.17 M25.33 37.92 C38.27 23.05, 51.2 8.17, 58.14 0.19 M25.33 37.92 C35.86 25.81, 46.39 13.7, 58.14 0.19 M30.32 38.28 C40.59 26.47, 50.85 14.66, 63.78 -0.21 M30.32 38.28 C39.48 27.74, 48.64 17.21, 63.78 -0.21 M35.96 37.89 C48.05 23.98, 60.14 10.08, 68.77 0.15 M35.96 37.89 C44.48 28.09, 52.99 18.3, 68.77 0.15 M40.95 38.25 C49.14 28.83, 57.32 19.42, 74.41 -0.24 M40.95 38.25 C48.38 29.7, 55.82 21.15, 74.41 -0.24 M46.59 37.85 C58.35 24.33, 70.11 10.81, 79.4 0.12 M46.59 37.85 C58.71 23.91, 70.83 9.97, 79.4 0.12 M51.58 38.21 C61.54 26.76, 71.49 15.31, 85.04 -0.28 M51.58 38.21 C60.51 27.94, 69.44 17.67, 85.04 -0.28 M57.22 37.82 C64.45 29.51, 71.67 21.2, 90.03 0.08 M57.22 37.82 C68.09 25.32, 78.96 12.82, 90.03 0.08 M62.21 38.18 C70.95 28.13, 79.69 18.08, 95.67 -0.31 M62.21 38.18 C73.07 25.69, 83.92 13.21, 95.67 -0.31 M67.85 37.79 C78.95 25.02, 90.05 12.25, 100.66 0.05 M67.85 37.79 C75.96 28.46, 84.07 19.14, 100.66 0.05 M72.84 38.15 C84.85 24.34, 96.85 10.53, 106.3 -0.34 M72.84 38.15 C80.63 29.18, 88.42 20.22, 106.3 -0.34 M78.48 37.75 C85.87 29.25, 93.26 20.75, 111.29 0.02 M78.48 37.75 C86.4 28.65, 94.31 19.54, 111.29 0.02 M83.47 38.11 C91.41 28.97, 99.36 19.84, 116.27 0.38 M83.47 38.11 C95.03 24.81, 106.59 11.52, 116.27 0.38 M89.12 37.72 C99.67 25.57, 110.23 13.43, 121.92 -0.02 M89.12 37.72 C97.64 27.91, 106.16 18.11, 121.92 -0.02 M94.1 38.08 C106.92 23.33, 119.75 8.58, 126.91 0.34 M94.1 38.08 C106.07 24.31, 118.04 10.53, 126.91 0.34 M99.75 37.68 C112.76 22.71, 125.77 7.75, 132.55 -0.05 M99.75 37.68 C108.62 27.47, 117.49 17.26, 132.55 -0.05 M104.73 38.04 C115 26.23, 125.26 14.42, 137.54 0.31 M104.73 38.04 C113.73 27.69, 122.74 17.33, 137.54 0.31 M109.72 38.4 C121.32 25.06, 132.92 11.71, 143.18 -0.09 M109.72 38.4 C118.53 28.27, 127.34 18.13, 143.18 -0.09 M115.36 38.01 C126.65 25.02, 137.95 12.03, 148.17 0.27 M115.36 38.01 C122.14 30.21, 128.92 22.42, 148.17 0.27 M120.35 38.37 C133.64 23.08, 146.93 7.79, 153.81 -0.12 M120.35 38.37 C128.71 28.75, 137.07 19.13, 153.81 -0.12 M125.99 37.97 C134.16 28.58, 142.32 19.18, 158.8 0.24 M125.99 37.97 C132.85 30.09, 139.7 22.2, 158.8 0.24 M130.98 38.33 C141.05 26.74, 151.13 15.16, 164.44 -0.16 M130.98 38.33 C139.8 28.18, 148.62 18.04, 164.44 -0.16 M136.62 37.94 C143.82 29.66, 151.01 21.39, 169.43 0.2 M136.62 37.94 C144.86 28.46, 153.1 18.98, 169.43 0.2 M141.61 38.3 C152.98 25.22, 164.35 12.14, 175.07 -0.19 M141.61 38.3 C153.66 24.44, 165.71 10.57, 175.07 -0.19 M147.25 37.9 C156.29 27.5, 165.33 17.11, 180.06 0.17 M147.25 37.9 C154.61 29.44, 161.97 20.97, 180.06 0.17 M152.24 38.26 C163.04 25.84, 173.83 13.42, 185.7 -0.23 M152.24 38.26 C159.49 29.93, 166.73 21.59, 185.7 -0.23 M157.88 37.87 C166.62 27.82, 175.36 17.77, 190.69 0.13 M157.88 37.87 C169.1 24.96, 180.32 12.06, 190.69 0.13 M162.87 38.23 C175.83 23.32, 188.79 8.41, 196.33 -0.26 M162.87 38.23 C173.98 25.44, 185.1 12.66, 196.33 -0.26 M168.51 37.83 C177.31 27.71, 186.11 17.59, 201.32 0.1 M168.51 37.83 C179.63 25.04, 190.75 12.25, 201.32 0.1 M173.5 38.19 C186.86 22.82, 200.23 7.45, 206.96 -0.3 M173.5 38.19 C181.13 29.42, 188.76 20.64, 206.96 -0.3 M179.14 37.8 C191.8 23.24, 204.46 8.68, 211.95 0.06 M179.14 37.8 C188.08 27.52, 197.01 17.24, 211.95 0.06 M184.13 38.16 C195.93 24.58, 207.74 11.01, 217.59 -0.33 M184.13 38.16 C192.39 28.66, 200.65 19.16, 217.59 -0.33 M189.77 37.77 C201.33 24.48, 212.88 11.19, 222.58 0.03 M189.77 37.77 C200.31 25.65, 210.84 13.53, 222.58 0.03 M194.76 38.13 C207.11 23.91, 219.47 9.7, 228.22 -0.36 M194.76 38.13 C206.59 24.51, 218.43 10.9, 228.22 -0.36 M200.4 37.73 C211.17 25.35, 221.93 12.96, 233.21 0 M200.4 37.73 C213.06 23.17, 225.72 8.61, 233.21 0 M205.39 38.09 C215.2 26.81, 225 15.53, 238.19 0.36 M205.39 38.09 C216.38 25.45, 227.37 12.8, 238.19 0.36 M211.03 37.7 C220.97 26.26, 230.91 14.83, 243.84 -0.04 M211.03 37.7 C220.52 26.79, 230 15.87, 243.84 -0.04 M216.02 38.06 C226.52 25.98, 237.01 13.91, 248.82 0.32 M216.02 38.06 C229.13 22.98, 242.24 7.9, 248.82 0.32 M221.01 38.42 C230.84 27.11, 240.66 15.8, 254.47 -0.07 M221.01 38.42 C233.57 23.96, 246.14 9.5, 254.47 -0.07 M226.65 38.02 C237.76 25.24, 248.87 12.46, 259.45 0.29 M226.65 38.02 C239.04 23.77, 251.43 9.52, 259.45 0.29 M231.64 38.38 C243.21 25.07, 254.78 11.75, 265.1 -0.11 M231.64 38.38 C242.06 26.39, 252.48 14.4, 265.1 -0.11 M237.28 37.99 C250.06 23.29, 262.84 8.59, 270.08 0.25 M237.28 37.99 C247.83 25.85, 258.38 13.72, 270.08 0.25 M242.27 38.35 C253.41 25.53, 264.55 12.72, 275.73 -0.14 M242.27 38.35 C251.8 27.38, 261.34 16.4, 275.73 -0.14 M247.91 37.95 C255.62 29.09, 263.33 20.22, 280.71 0.22 M247.91 37.95 C257.93 26.43, 267.95 14.9, 280.71 0.22 M252.9 38.31 C264.82 24.6, 276.75 10.88, 286.36 -0.18 M252.9 38.31 C259.8 30.37, 266.71 22.42, 286.36 -0.18 M258.54 37.92 C270.54 24.12, 282.54 10.31, 291.34 0.18 M258.54 37.92 C265.93 29.41, 273.33 20.91, 291.34 0.18 M263.53 38.28 C275.11 24.96, 286.69 11.64, 296.99 -0.21 M263.53 38.28 C273.82 26.44, 284.11 14.6, 296.99 -0.21 M269.17 37.88 C275.76 30.31, 282.34 22.74, 301.97 0.15 M269.17 37.88 C282.27 22.81, 295.37 7.75, 301.97 0.15 M274.16 38.24 C282.85 28.24, 291.55 18.24, 307.62 -0.25 M274.16 38.24 C285.61 25.07, 297.07 11.89, 307.62 -0.25 M279.8 37.85 C289.21 27.03, 298.61 16.21, 312.6 0.11 M279.8 37.85 C291.84 24, 303.88 10.15, 312.6 0.11 M284.79 38.21 C294.28 27.29, 303.77 16.37, 318.25 -0.28 M284.79 38.21 C297.72 23.33, 310.65 8.46, 318.25 -0.28 M290.43 37.82 C300.23 26.54, 310.03 15.27, 323.23 0.08 M290.43 37.82 C299.95 26.87, 309.47 15.92, 323.23 0.08 M295.42 38.18 C303.17 29.26, 310.92 20.34, 328.88 -0.31 M295.42 38.18 C303.37 29.03, 311.32 19.88, 328.88 -0.31 M301.06 37.78 C308.94 28.72, 316.81 19.66, 333.86 0.05 M301.06 37.78 C312.62 24.49, 324.17 11.19, 333.86 0.05 M306.05 38.14 C317.63 24.82, 329.2 11.5, 339.51 -0.35 M306.05 38.14 C313.25 29.86, 320.45 21.57, 339.51 -0.35 M311.69 37.75 C319.63 28.62, 327.57 19.48, 344.49 0.01 M311.69 37.75 C323.46 24.21, 335.23 10.67, 344.49 0.01 M316.68 38.11 C326.43 26.89, 336.17 15.68, 349.48 0.37 M316.68 38.11 C328.51 24.5, 340.34 10.89, 349.48 0.37 M322.32 37.71 C334.26 23.98, 346.19 10.25, 355.12 -0.02 M322.32 37.71 C333.38 24.99, 344.43 12.28, 355.12 -0.02 M327.31 38.07 C339.89 23.6, 352.47 9.13, 360.11 0.34 M327.31 38.07 C335.08 29.13, 342.86 20.18, 360.11 0.34 M332.95 37.68 C345.85 22.84, 358.75 8, 365.75 -0.06 M332.95 37.68 C343.98 24.99, 355 12.31, 365.75 -0.06 M337.94 38.04 C348.82 25.52, 359.71 13, 370.74 0.3 M337.94 38.04 C348.75 25.6, 359.57 13.16, 370.74 0.3 M342.93 38.4 C351.15 28.93, 359.38 19.47, 376.38 -0.09 M342.93 38.4 C350.52 29.66, 358.12 20.91, 376.38 -0.09 M348.57 38 C358.3 26.81, 368.03 15.62, 381.37 0.27 M348.57 38 C356.62 28.74, 364.67 19.48, 381.37 0.27 M353.56 38.36 C365.79 24.29, 378.02 10.22, 387.01 -0.13 M353.56 38.36 C363.69 26.7, 373.83 15.04, 387.01 -0.13 M359.2 37.97 C367.76 28.12, 376.32 18.28, 392 0.23 M359.2 37.97 C369.47 26.15, 379.74 14.34, 392 0.23 M364.19 38.33 C375.03 25.85, 385.88 13.38, 397.64 -0.16 M364.19 38.33 C373.5 27.61, 382.81 16.9, 397.64 -0.16 M369.83 37.93 C376.94 29.75, 384.05 21.57, 400.01 3.22 M369.83 37.93 C381.41 24.62, 392.98 11.3, 400.01 3.22 M374.82 38.29 C380.49 31.77, 386.16 25.24, 400.4 8.86 M374.82 38.29 C382.24 29.75, 389.66 21.21, 400.4 8.86 M380.46 37.9 C385.58 32.01, 390.69 26.13, 400.14 15.26 M380.46 37.9 C384.97 32.71, 389.49 27.51, 400.14 15.26 M385.45 38.26 C389.58 33.5, 393.71 28.75, 399.88 21.66 M385.45 38.26 C389.73 33.33, 394.01 28.41, 399.88 21.66 M391.09 37.87 C392.94 35.74, 394.78 33.62, 400.27 27.3 M391.09 37.87 C394.26 34.22, 397.43 30.57, 400.27 27.3 M396.08 38.23 C397.16 36.98, 398.24 35.74, 400.01 33.7 M396.08 38.23 C397.17 36.96, 398.27 35.7, 400.01 33.7 M0.05 38.05 C0.05 38.05, 0.05 38.05, 0.05 38.05 M0.05 38.05 C0.05 38.05, 0.05 38.05, 0.05 38.05 M6.45 38.31 C4.61 36.71, 2.77 35.11, -0.34 32.4 M6.45 38.31 C4.83 36.9, 3.22 35.5, -0.34 32.4 M12.09 37.91 C9.16 35.36, 6.22 32.81, 0.02 27.42 M12.09 37.91 C7.59 34, 3.08 30.08, 0.02 27.42 M18.49 38.17 C13.07 33.46, 7.66 28.76, -0.38 21.77 M18.49 38.17 C10.96 31.63, 3.43 25.08, -0.38 21.77 M24.13 37.78 C18.84 33.17, 13.54 28.57, -0.02 16.79 M24.13 37.78 C17.28 31.82, 10.43 25.87, -0.02 16.79 M30.53 38.04 C22.54 31.09, 14.55 24.15, 0.34 11.8 M30.53 38.04 C24.25 32.58, 17.97 27.12, 0.34 11.8 M36.93 38.3 C27.22 29.87, 17.52 21.43, -0.05 6.16 M36.93 38.3 C27.28 29.91, 17.63 21.53, -0.05 6.16 M42.57 37.91 C31.07 27.91, 19.56 17.91, 0.31 1.17 M42.57 37.91 C28.51 25.69, 14.46 13.47, 0.31 1.17 M48.97 38.17 C32.03 23.44, 15.09 8.72, 4.44 -0.54 M48.97 38.17 C39.69 30.1, 30.4 22.03, 4.44 -0.54 M54.61 37.77 C41.2 26.11, 27.78 14.45, 10.84 -0.28 M54.61 37.77 C43.11 27.78, 31.61 17.78, 10.84 -0.28 M61.01 38.04 C51.85 30.07, 42.69 22.11, 17.24 -0.02 M61.01 38.04 C45.6 24.64, 30.18 11.24, 17.24 -0.02 M67.41 38.3 C54.37 26.97, 41.34 15.64, 22.88 -0.41 M67.41 38.3 C53.61 26.3, 39.8 14.3, 22.88 -0.41 M73.05 37.9 C63.73 29.8, 54.41 21.69, 29.28 -0.15 M73.05 37.9 C62.57 28.79, 52.09 19.68, 29.28 -0.15 M79.45 38.16 C66.81 27.17, 54.16 16.18, 34.92 -0.54 M79.45 38.16 C70.19 30.12, 60.93 22.07, 34.92 -0.54 M85.09 37.77 C72.67 26.97, 60.24 16.16, 41.32 -0.28 M85.09 37.77 C70.21 24.83, 55.33 11.89, 41.32 -0.28 M91.49 38.03 C80.04 28.08, 68.59 18.13, 47.72 -0.02 M91.49 38.03 C77.83 26.16, 64.18 14.29, 47.72 -0.02 M97.89 38.29 C82.64 25.04, 67.4 11.79, 53.36 -0.41 M97.89 38.29 C86.98 28.81, 76.06 19.32, 53.36 -0.41 M103.53 37.9 C88.87 25.15, 74.21 12.41, 59.76 -0.15 M103.53 37.9 C86.05 22.7, 68.56 7.5, 59.76 -0.15 M109.93 38.16 C94.93 25.12, 79.93 12.08, 65.4 -0.55 M109.93 38.16 C98 27.79, 86.07 17.42, 65.4 -0.55 M115.57 37.76 C100.62 24.77, 85.67 11.77, 71.8 -0.29 M115.57 37.76 C103.77 27.51, 91.98 17.25, 71.8 -0.29 M121.97 38.03 C111.29 28.74, 100.61 19.45, 78.2 -0.02 M121.97 38.03 C111.31 28.76, 100.64 19.49, 78.2 -0.02 M128.37 38.29 C117.36 28.72, 106.35 19.15, 83.84 -0.42 M128.37 38.29 C113.09 25, 97.8 11.72, 83.84 -0.42 M134.01 37.89 C122.26 27.67, 110.5 17.46, 90.24 -0.16 M134.01 37.89 C119.6 25.37, 105.2 12.84, 90.24 -0.16 M140.41 38.15 C125.01 24.77, 109.62 11.39, 95.88 -0.55 M140.41 38.15 C128.68 27.96, 116.95 17.76, 95.88 -0.55 M146.05 37.76 C135.4 28.5, 124.75 19.24, 102.28 -0.29 M146.05 37.76 C137.15 30.02, 128.24 22.28, 102.28 -0.29 M152.45 38.02 C141.12 28.17, 129.78 18.32, 108.68 -0.03 M152.45 38.02 C139.53 26.79, 126.62 15.57, 108.68 -0.03 M158.85 38.28 C148.64 29.41, 138.43 20.53, 114.32 -0.42 M158.85 38.28 C146.95 27.94, 135.06 17.6, 114.32 -0.42 M164.49 37.89 C149.75 25.07, 135 12.25, 120.72 -0.16 M164.49 37.89 C150.28 25.53, 136.07 13.18, 120.72 -0.16 M170.89 38.15 C156.83 25.93, 142.78 13.72, 126.36 -0.56 M170.89 38.15 C160.07 28.75, 149.26 19.35, 126.36 -0.56 M176.53 37.76 C165.25 27.95, 153.97 18.14, 132.76 -0.3 M176.53 37.76 C165.11 27.83, 153.7 17.9, 132.76 -0.3 M182.93 38.02 C173.32 29.66, 163.71 21.31, 139.16 -0.03 M182.93 38.02 C166.51 23.74, 150.08 9.46, 139.16 -0.03 M189.33 38.28 C179.18 29.46, 169.03 20.64, 144.8 -0.43 M189.33 38.28 C178.91 29.22, 168.49 20.16, 144.8 -0.43 M194.97 37.88 C182.44 26.99, 169.9 16.09, 151.2 -0.17 M194.97 37.88 C184.89 29.12, 174.8 20.35, 151.2 -0.17 M201.37 38.15 C184.37 23.37, 167.38 8.6, 156.84 -0.56 M201.37 38.15 C183.72 22.8, 166.06 7.46, 156.84 -0.56 M207.01 37.75 C194.33 26.73, 181.66 15.71, 163.24 -0.3 M207.01 37.75 C194.02 26.46, 181.03 15.17, 163.24 -0.3 M213.41 38.01 C196.7 23.49, 180 8.97, 169.64 -0.04 M213.41 38.01 C199.3 25.75, 185.19 13.48, 169.64 -0.04 M219.81 38.27 C209.53 29.34, 199.24 20.4, 175.28 -0.43 M219.81 38.27 C202.7 23.4, 185.58 8.52, 175.28 -0.43 M225.45 37.88 C215.88 29.56, 206.32 21.25, 181.68 -0.17 M225.45 37.88 C216.36 29.98, 207.27 22.08, 181.68 -0.17 M231.85 38.14 C216.71 24.98, 201.57 11.82, 187.32 -0.57 M231.85 38.14 C221.83 29.43, 211.81 20.72, 187.32 -0.57 M237.49 37.75 C228.25 29.71, 219.01 21.68, 193.72 -0.31 M237.49 37.75 C225.65 27.46, 213.82 17.17, 193.72 -0.31 M243.89 38.01 C231.87 27.56, 219.85 17.11, 200.12 -0.04 M243.89 38.01 C231.94 27.62, 220 17.24, 200.12 -0.04 M250.29 38.27 C241.1 30.28, 231.92 22.3, 205.76 -0.44 M250.29 38.27 C234.68 24.71, 219.08 11.14, 205.76 -0.44 M255.93 37.87 C241.88 25.66, 227.83 13.45, 212.16 -0.18 M255.93 37.87 C242.64 26.32, 229.36 14.77, 212.16 -0.18 M262.33 38.14 C245.73 23.71, 229.14 9.29, 218.55 0.08 M262.33 38.14 C248.79 26.37, 235.25 14.6, 218.55 0.08 M267.97 37.74 C250.77 22.79, 233.57 7.84, 224.2 -0.31 M267.97 37.74 C258.58 29.57, 249.18 21.41, 224.2 -0.31 M274.37 38 C264.18 29.15, 253.99 20.29, 230.59 -0.05 M274.37 38 C264.28 29.23, 254.19 20.46, 230.59 -0.05 M280.77 38.26 C270.39 29.25, 260.02 20.23, 236.24 -0.44 M280.77 38.26 C270.72 29.53, 260.68 20.8, 236.24 -0.44 M286.41 37.87 C268.96 22.7, 251.52 7.54, 242.64 -0.18 M286.41 37.87 C276.79 29.51, 267.18 21.15, 242.64 -0.18 M292.81 38.13 C283.56 30.09, 274.31 22.05, 249.03 0.08 M292.81 38.13 C280.65 27.56, 268.49 16.99, 249.03 0.08 M298.45 37.74 C288.13 28.76, 277.8 19.79, 254.68 -0.32 M298.45 37.74 C289.53 29.98, 280.6 22.22, 254.68 -0.32 M304.85 38 C290.56 25.58, 276.28 13.16, 261.07 -0.05 M304.85 38 C294.58 29.08, 284.32 20.15, 261.07 -0.05 M311.25 38.26 C300.9 29.27, 290.56 20.28, 266.72 -0.45 M311.25 38.26 C296.44 25.39, 281.64 12.52, 266.72 -0.45 M316.89 37.86 C307.92 30.07, 298.95 22.27, 273.12 -0.19 M316.89 37.86 C304.6 27.18, 292.31 16.5, 273.12 -0.19 M323.29 38.13 C314.38 30.38, 305.47 22.64, 279.51 0.07 M323.29 38.13 C306.81 23.81, 290.34 9.49, 279.51 0.07 M328.93 37.73 C315.73 26.25, 302.52 14.78, 285.16 -0.32 M328.93 37.73 C314.76 25.42, 300.6 13.1, 285.16 -0.32 M335.33 37.99 C322.49 26.83, 309.65 15.67, 291.55 -0.06 M335.33 37.99 C320.95 25.49, 306.57 12.99, 291.55 -0.06 M341.72 38.25 C328.4 26.67, 315.07 15.08, 297.2 -0.45 M341.72 38.25 C324.27 23.08, 306.82 7.91, 297.2 -0.45 M347.37 37.86 C331.02 23.64, 314.66 9.43, 303.59 -0.19 M347.37 37.86 C338.45 30.11, 329.53 22.35, 303.59 -0.19 M353.77 38.12 C340.24 26.36, 326.71 14.6, 309.99 0.07 M353.77 38.12 C343.42 29.13, 333.07 20.13, 309.99 0.07 M359.41 37.73 C348.71 28.43, 338.01 19.13, 315.64 -0.33 M359.41 37.73 C348.96 28.64, 338.51 19.56, 315.64 -0.33 M365.81 37.99 C353.99 27.72, 342.18 17.45, 322.03 -0.06 M365.81 37.99 C351.38 25.44, 336.95 12.9, 322.03 -0.06 M372.2 38.25 C361.79 29.19, 351.37 20.14, 327.68 -0.46 M372.2 38.25 C359.2 26.95, 346.2 15.65, 327.68 -0.46 M377.85 37.85 C362.57 24.57, 347.28 11.29, 334.07 -0.2 M377.85 37.85 C366.2 27.73, 354.55 17.6, 334.07 -0.2 M384.25 38.12 C366.8 22.95, 349.36 7.79, 340.47 0.06 M384.25 38.12 C373.57 28.84, 362.89 19.55, 340.47 0.06 M389.89 37.72 C374.92 24.71, 359.94 11.69, 346.12 -0.33 M389.89 37.72 C374.03 23.94, 358.18 10.16, 346.12 -0.33 M396.29 37.98 C382.17 25.71, 368.05 13.44, 352.51 -0.07 M396.29 37.98 C378.91 22.88, 361.54 7.78, 352.51 -0.07 M400.42 36.28 C388.92 26.28, 377.42 16.28, 358.16 -0.46 M400.42 36.28 C389.59 26.86, 378.77 17.45, 358.16 -0.46 M400.03 30.63 C388.73 20.81, 377.43 10.99, 364.55 -0.2 M400.03 30.63 C390.27 22.16, 380.52 13.68, 364.55 -0.2 M400.39 25.65 C388.87 15.64, 377.36 5.63, 370.95 0.06 M400.39 25.65 C391.32 17.76, 382.25 9.88, 370.95 0.06 M400.75 20.66 C395.26 15.89, 389.77 11.12, 376.59 -0.33 M400.75 20.66 C395.33 15.95, 389.91 11.24, 376.59 -0.33 M400.35 15.02 C393.78 9.3, 387.21 3.59, 382.99 -0.07 M400.35 15.02 C393.41 8.98, 386.47 2.95, 382.99 -0.07 M400.71 10.03 C398.09 7.75, 395.46 5.47, 388.64 -0.47 M400.71 10.03 C398.14 7.8, 395.57 5.56, 388.64 -0.47 M400.32 4.39 C398.51 2.81, 396.7 1.24, 395.03 -0.21 M400.32 4.39 C398.54 2.85, 396.77 1.3, 395.03 -0.21" stroke="#ffc9c9" stroke-width="0.5" fill="none"></path><path d="M0 0 C156.38 0, 312.76 0, 400 0 M0 0 C84.97 0, 169.95 0, 400 0 M400 0 C400 14.74, 400 29.48, 400 38 M400 0 C400 14.78, 400 29.57, 400 38 M400 38 C294.05 38, 188.09 38, 0 38 M400 38 C258.55 38, 117.1 38, 0 38 M0 38 C0 27.86, 0 17.71, 0 0 M0 38 C0 25, 0 12.01, 0 0" stroke="#1e1e1e" stroke-width="1" fill="none"></path></g><g transform="translate(656.9814453125 982.1) rotate(0 53.0185546875 6.900000000000006)"><text x="53.0185546875" y="10.140234374999999" font-family="Helvetica, sans-serif, Segoe UI Emoji" font-size="12px" fill="#1e1e1e" text-anchor="middle" style="white-space: pre;" direction="ltr" dominant-baseline="alphabetic">RUST-MAIN outage</text></g><g stroke-linecap="round"><g transform="translate(709.9 964.5) rotate(0 -180 -134.5)"><path d="M0 0 C0 -4.94, 0 -9.88, 0 -18.5 M0 0 C0 -6.33, 0 -12.66, 0 -18.5 M0 -18.5 C0 -29.17, -5.33 -34.5, -16 -34.5 M0 -18.5 C0 -29.17, -5.33 -34.5, -16 -34.5 M-16 -34.5 C-135.63 -34.5, -255.26 -34.5, -344 -34.5 M-16 -34.5 C-121.84 -34.5, -227.67 -34.5, -344 -34.5 M-344 -34.5 C-354.67 -34.5, -360 -39.83, -360 -50.5 M-344 -34.5 C-354.67 -34.5, -360 -39.83, -360 -50.5 M-360 -50.5 C-360 -125.02, -360 -199.55, -360 -269 M-360 -50.5 C-360 -132.03, -360 -213.56, -360 -269" stroke="#1e1e1e" stroke-width="1" fill="none"></path></g><g transform="translate(709.9 964.5) rotate(0 -180 -134.5)"><path d="M-360 -269 L-353.66 -255.41 L-366.34 -255.41 L-360 -269" stroke="none" stroke-width="0" fill="#1e1e1e" fill-rule="evenodd"></path><path d="M-360 -269 C-358.31 -265.37, -356.62 -261.74, -353.66 -255.41 M-360 -269 C-357.83 -264.35, -355.66 -259.7, -353.66 -255.41 M-353.66 -255.41 C-357.51 -255.41, -361.36 -255.41, -366.34 -255.41 M-353.66 -255.41 C-356.8 -255.41, -359.95 -255.41, -366.34 -255.41 M-366.34 -255.41 C-364.09 -260.23, -361.84 -265.06, -360 -269 M-366.34 -255.41 C-364.34 -259.7, -362.33 -264, -360 -269 M-360 -269 C-360 -269, -360 -269, -360 -269 M-360 -269 C-360 -269, -360 -269, -360 -269" stroke="#1e1e1e" stroke-width="1" fill="none"></path></g></g><mask></mask><g stroke-linecap="round" transform="translate(830 810) rotate(0 100 40)"><path d="M0 0 L200 0 L200 80 L0 80" stroke="none" stroke-width="0" fill="#ffffff"></path><path d="M0 0 C71.48 0, 142.95 0, 200 0 M0 0 C78.53 0, 157.06 0, 200 0 M200 0 C200 17.71, 200 35.43, 200 80 M200 0 C200 23.46, 200 46.92, 200 80 M200 80 C142.52 80, 85.04 80, 0 80 M200 80 C151.76 80, 103.52 80, 0 80 M0 80 C0 50.87, 0 21.74, 0 0 M0 80 C0 51.4, 0 22.81, 0 0" stroke="#1e1e1e" stroke-width="1" fill="none"></path></g><g transform="translate(835.6201171875 822.4) rotate(0 94.3798828125 27.599999999999994)"><text x="94.3798828125" y="10.140234374999999" font-family="Helvetica, sans-serif, Segoe UI Emoji" font-size="12px" fill="#1e1e1e" text-anchor="middle" style="white-space: pre;" direction="ltr" dominant-baseline="alphabetic">known-good version kernel artifacts</text><text x="94.3798828125" y="23.940234374999996" font-family="Helvetica, sans-serif, Segoe UI Emoji" font-size="12px" fill="#1e1e1e" text-anchor="middle" style="white-space: pre;" direction="ltr" dominant-baseline="alphabetic">sourced from kernel.org scm</text><text x="94.3798828125" y="37.740234375" font-family="Helvetica, sans-serif, Segoe UI Emoji" font-size="12px" fill="#1e1e1e" text-anchor="middle" style="white-space: pre;" direction="ltr" dominant-baseline="alphabetic">export, not directly the mirrored</text><text x="94.3798828125" y="51.540234375" font-family="Helvetica, sans-serif, Segoe UI Emoji" font-size="12px" fill="#1e1e1e" text-anchor="middle" style="white-space: pre;" direction="ltr" dominant-baseline="alphabetic">release artifacts</text></g><g stroke-linecap="round"><g transform="translate(709.9 964.5) rotate(0 110.00000000000001 -34.49999999999997)"><path d="M0 0 C0 -6.67, 0 -13.35, 0 -18.5 M0 0 C0 -4.85, 0 -9.69, 0 -18.5 M0 -18.5 C0 -29.17, 5.33 -34.5, 16 -34.5 M0 -18.5 C0 -29.17, 5.33 -34.5, 16 -34.5 M16 -34.5 C56.37 -34.5, 96.74 -34.5, 204 -34.5 M16 -34.5 C72.23 -34.5, 128.46 -34.5, 204 -34.5 M204 -34.5 C214.67 -34.5, 220 -39.83, 220 -50.5 M204 -34.5 C214.67 -34.5, 220 -39.83, 220 -50.5 M220 -50.5 C220 -54.43, 220 -58.36, 220 -69 M220 -50.5 C220 -57.88, 220 -65.26, 220 -69" stroke="#1e1e1e" stroke-width="1" fill="none"></path></g><g transform="translate(709.9 964.5) rotate(0 110.00000000000001 -34.49999999999997)"><path d="M220 -69 L226.34 -55.41 L213.66 -55.41 L220 -69" stroke="none" stroke-width="0" fill="#1e1e1e" fill-rule="evenodd"></path><path d="M220 -69 C222.29 -64.1, 224.57 -59.19, 226.34 -55.41 M220 -69 C221.66 -65.44, 223.32 -61.88, 226.34 -55.41 M226.34 -55.41 C221.34 -55.41, 216.33 -55.41, 213.66 -55.41 M226.34 -55.41 C222.7 -55.41, 219.06 -55.41, 213.66 -55.41 M213.66 -55.41 C215.79 -59.96, 217.91 -64.52, 220 -69 M213.66 -55.41 C215.53 -59.41, 217.39 -63.41, 220 -69 M220 -69 C220 -69, 220 -69, 220 -69 M220 -69 C220 -69, 220 -69, 220 -69" stroke="#1e1e1e" stroke-width="1" fill="none"></path></g></g><mask></mask><g stroke-linecap="round"><g transform="translate(929.9 804.5) rotate(0 0 -14.500000000000028)"><path d="M0 0 C0 -6.66, 0 -13.32, 0 -29 M0 0 C0 -9.52, 0 -19.04, 0 -29" stroke="#1e1e1e" stroke-width="1" fill="none"></path></g><g transform="translate(929.9 804.5) rotate(0 0 -14.500000000000028)"><path d="M0 -29 L6.13 -15.86 L-6.13 -15.86 L0 -29" stroke="none" stroke-width="0" fill="#1e1e1e" fill-rule="evenodd"></path><path d="M0 -29 C1.41 -25.98, 2.82 -22.96, 6.13 -15.86 M0 -29 C2.01 -24.69, 4.02 -20.37, 6.13 -15.86 M6.13 -15.86 C1.84 -15.86, -2.46 -15.86, -6.13 -15.86 M6.13 -15.86 C1.49 -15.86, -3.15 -15.86, -6.13 -15.86 M-6.13 -15.86 C-3.78 -20.9, -1.43 -25.94, 0 -29 M-6.13 -15.86 C-4.39 -19.59, -2.65 -23.32, 0 -29 M0 -29 C0 -29, 0 -29, 0 -29 M0 -29 C0 -29, 0 -29, 0 -29" stroke="#1e1e1e" stroke-width="1" fill="none"></path></g></g><mask></mask></svg>