<svg version="1.1" xmlns="http://www.w3.org/2000/svg" viewBox="0 0 1400 798" width="1400" height="798" class="excalidraw-svg"><!-- svg-source:excalidraw --><metadata></metadata><defs><style class="style-fonts">
      </style></defs><rect x="0" y="0" width="1400" height="798" fill="#ffffff"></rect><g stroke-linecap="round" transform="translate(210 10) rotate(0 250 19)"><path d="M0 0 L500 0 L500 38 L0 38" stroke="none" stroke-width="0" fill="#ffc9c9"></path><path d="M0 0 C139.45 0, 278.89 0, 500 0 M0 0 C102.4 0, 204.8 0, 500 0 M500 0 C500 9.11, 500 18.23, 500 38 M500 0 C500 13.43, 500 26.86, 500 38 M500 38 C363.65 38, 227.3 38, 0 38 M500 38 C329.87 38, 159.73 38, 0 38 M0 38 C0 29.79, 0 21.58, 0 0 M0 38 C0 25.52, 0 13.04, 0 0" stroke="#1e1e1e" stroke-width="1" fill="none"></path></g><g transform="translate(397.3017578125 22.100000000000023) rotate(0 62.6982421875 6.899999999999977)"><text x="62.6982421875" y="10.140234374999999" font-family="Helvetica, sans-serif, Segoe UI Emoji" font-size="12px" fill="#1e1e1e" text-anchor="middle" style="white-space: pre;" direction="ltr" dominant-baseline="alphabetic">rust-lang/rust CI outage</text></g><g stroke-linecap="round" transform="translate(210 90) rotate(0 250 12)"><path d="M0 0 L500 0 L500 24 L0 24" stroke="none" stroke-width="0" fill="#ffec99"></path><path d="M0 0 C118.43 0, 236.86 0, 500 0 M0 0 C145.72 0, 291.43 0, 500 0 M500 0 C500 9.45, 500 18.91, 500 24 M500 0 C500 7.21, 500 14.43, 500 24 M500 24 C327.9 24, 155.81 24, 0 24 M500 24 C322.82 24, 145.63 24, 0 24 M0 24 C0 16.15, 0 8.3, 0 0 M0 24 C0 19.14, 0 14.28, 0 0" stroke="#1e1e1e" stroke-width="1" fill="none"></path></g><g transform="translate(447.33203125 95.10000000000002) rotate(0 12.66796875 6.899999999999977)"><text x="12.66796875" y="10.140234374999999" font-family="Helvetica, sans-serif, Segoe UI Emoji" font-size="12px" fill="#1e1e1e" text-anchor="middle" style="white-space: pre;" direction="ltr" dominant-baseline="alphabetic">AND</text></g><g stroke-linecap="round" transform="translate(10 170) rotate(0 150 19)"><path d="M0 0 L300 0 L300 38 L0 38" stroke="none" stroke-width="0" fill="#ffffff"></path><path d="M0 0 C89.94 0, 179.88 0, 300 0 M0 0 C111.55 0, 223.11 0, 300 0 M300 0 C300 11.65, 300 23.31, 300 38 M300 0 C300 13.22, 300 26.45, 300 38 M300 38 C233.22 38, 166.44 38, 0 38 M300 38 C226.53 38, 153.07 38, 0 38 M0 38 C0 25.52, 0 13.04, 0 0 M0 38 C0 23.02, 0 8.05, 0 0" stroke="#1e1e1e" stroke-width="1" fill="none"></path></g><g transform="translate(102.9619140625 182.10000000000002) rotate(0 57.0380859375 6.899999999999977)"><text x="57.0380859375" y="10.140234374999999" font-family="Helvetica, sans-serif, Segoe UI Emoji" font-size="12px" fill="#1e1e1e" text-anchor="middle" style="white-space: pre;" direction="ltr" dominant-baseline="alphabetic">armhf-gnu job outage</text></g><g stroke-linecap="round" transform="translate(510 170) rotate(0 200 19)"><path d="M0 0 L400 0 L400 38 L0 38" stroke="none" stroke-width="0" fill="#ffffff"></path><path d="M0 0 C144.53 0, 289.06 0, 400 0 M0 0 C108.77 0, 217.53 0, 400 0 M400 0 C400 14.15, 400 28.3, 400 38 M400 0 C400 8.6, 400 17.21, 400 38 M400 38 C278.93 38, 157.86 38, 0 38 M400 38 C308.09 38, 216.18 38, 0 38 M0 38 C0 26.72, 0 15.45, 0 0 M0 38 C0 24.87, 0 11.75, 0 0" stroke="#1e1e1e" stroke-width="1" fill="none"></path></g><g transform="translate(663.6376953125 182.10000000000002) rotate(0 46.3623046875 6.899999999999977)"><text x="46.3623046875" y="10.140234374999999" font-family="Helvetica, sans-serif, Segoe UI Emoji" font-size="12px" fill="#1e1e1e" text-anchor="middle" style="white-space: pre;" direction="ltr" dominant-baseline="alphabetic">dist-* jobs outage</text></g><g stroke-linecap="round" transform="translate(10 750) rotate(0 200 19)"><path d="M0 0 C0 0, 0 0, 0 0 M0 0 C0 0, 0 0, 0 0 M-0.26 6.4 C1.67 4.18, 3.59 1.96, 4.99 0.36 M-0.26 6.4 C1.38 4.51, 3.02 2.62, 4.99 0.36 M0.13 12.04 C4.2 7.37, 8.26 2.69, 10.63 -0.03 M0.13 12.04 C3.58 8.07, 7.03 4.11, 10.63 -0.03 M-0.13 18.44 C4.71 12.87, 9.55 7.3, 15.62 0.33 M-0.13 18.44 C5.86 11.55, 11.85 4.66, 15.62 0.33 M0.27 24.08 C4.65 19.03, 9.04 13.99, 21.26 -0.07 M0.27 24.08 C7.55 15.7, 14.84 7.32, 21.26 -0.07 M0 30.48 C6.06 23.51, 12.12 16.55, 26.25 0.29 M0 30.48 C7.11 22.31, 14.21 14.14, 26.25 0.29 M-0.26 36.88 C11.83 22.97, 23.92 9.06, 31.89 -0.1 M-0.26 36.88 C7.8 27.61, 15.86 18.34, 31.89 -0.1 M4.07 37.99 C14.52 25.97, 24.97 13.95, 36.88 0.26 M4.07 37.99 C15.18 25.21, 26.29 12.43, 36.88 0.26 M9.06 38.35 C16.05 30.32, 23.03 22.28, 42.52 -0.14 M9.06 38.35 C16.78 29.47, 24.5 20.59, 42.52 -0.14 M14.7 37.96 C23.9 27.38, 33.09 16.81, 47.51 0.22 M14.7 37.96 C26.58 24.3, 38.45 10.64, 47.51 0.22 M19.69 38.32 C28.25 28.48, 36.8 18.63, 53.15 -0.17 M19.69 38.32 C26.39 30.61, 33.1 22.89, 53.15 -0.17 M25.33 37.92 C36.93 24.59, 48.52 11.25, 58.14 0.19 M25.33 37.92 C36.48 25.1, 47.63 12.27, 58.14 0.19 M30.32 38.28 C40.14 26.99, 49.95 15.7, 63.78 -0.21 M30.32 38.28 C43.53 23.09, 56.74 7.9, 63.78 -0.21 M35.96 37.89 C45.92 26.43, 55.89 14.97, 68.77 0.15 M35.96 37.89 C45.58 26.83, 55.2 15.76, 68.77 0.15 M40.95 38.25 C51.88 25.68, 62.8 13.11, 74.41 -0.24 M40.95 38.25 C53.36 23.97, 65.77 9.7, 74.41 -0.24 M46.59 37.85 C53.97 29.37, 61.34 20.89, 79.4 0.12 M46.59 37.85 C55.29 27.86, 63.98 17.86, 79.4 0.12 M51.58 38.21 C64.57 23.28, 77.55 8.34, 85.04 -0.28 M51.58 38.21 C58.53 30.22, 65.47 22.23, 85.04 -0.28 M57.22 37.82 C68.34 25.03, 79.45 12.25, 90.03 0.08 M57.22 37.82 C67.72 25.75, 78.21 13.67, 90.03 0.08 M62.21 38.18 C73.55 25.13, 84.89 12.09, 95.67 -0.31 M62.21 38.18 C72.44 26.42, 82.66 14.65, 95.67 -0.31 M67.85 37.79 C80.84 22.85, 93.82 7.92, 100.66 0.05 M67.85 37.79 C79.17 24.77, 90.48 11.76, 100.66 0.05 M72.84 38.15 C81.82 27.82, 90.79 17.49, 106.3 -0.34 M72.84 38.15 C85.81 23.23, 98.78 8.31, 106.3 -0.34 M78.48 37.75 C87.46 27.42, 96.44 17.09, 111.29 0.02 M78.48 37.75 C86.62 28.39, 94.76 19.03, 111.29 0.02 M83.47 38.11 C93.09 27.04, 102.72 15.97, 116.27 0.38 M83.47 38.11 C93.25 26.87, 103.02 15.62, 116.27 0.38 M89.12 37.72 C101.55 23.41, 113.98 9.11, 121.92 -0.02 M89.12 37.72 C100.93 24.12, 112.75 10.53, 121.92 -0.02 M94.1 38.08 C105.89 24.51, 117.68 10.95, 126.91 0.34 M94.1 38.08 C100.77 30.41, 107.43 22.75, 126.91 0.34 M99.75 37.68 C107.82 28.39, 115.89 19.11, 132.55 -0.05 M99.75 37.68 C107.41 28.87, 115.07 20.05, 132.55 -0.05 M104.73 38.04 C112.61 28.98, 120.48 19.92, 137.54 0.31 M104.73 38.04 C117.57 23.28, 130.4 8.51, 137.54 0.31 M109.72 38.4 C121.01 25.41, 132.31 12.41, 143.18 -0.09 M109.72 38.4 C117.82 29.08, 125.93 19.76, 143.18 -0.09 M115.36 38.01 C126.41 25.3, 137.46 12.58, 148.17 0.27 M115.36 38.01 C124.3 27.72, 133.24 17.44, 148.17 0.27 M120.35 38.37 C128.51 28.97, 136.68 19.58, 153.81 -0.12 M120.35 38.37 C133.14 23.66, 145.93 8.94, 153.81 -0.12 M125.99 37.97 C135.16 27.42, 144.33 16.87, 158.8 0.24 M125.99 37.97 C138.42 23.68, 150.85 9.38, 158.8 0.24 M130.98 38.33 C140.49 27.39, 150 16.45, 164.44 -0.16 M130.98 38.33 C140.06 27.88, 149.15 17.43, 164.44 -0.16 M136.62 37.94 C147.32 25.64, 158.01 13.33, 169.43 0.2 M136.62 37.94 C148.57 24.2, 160.51 10.45, 169.43 0.2 M141.61 38.3 C151.82 26.55, 162.04 14.8, 175.07 -0.19 M141.61 38.3 C153.32 24.83, 165.02 11.36, 175.07 -0.19 M147.25 37.9 C159.13 24.24, 171.01 10.57, 180.06 0.17 M147.25 37.9 C153.95 30.2, 160.65 22.5, 180.06 0.17 M152.24 38.26 C161.68 27.41, 171.12 16.55, 185.7 -0.23 M152.24 38.26 C161.57 27.53, 170.91 16.79, 185.7 -0.23 M157.88 37.87 C167.8 26.46, 177.71 15.06, 190.69 0.13 M157.88 37.87 C170.89 22.91, 183.89 7.95, 190.69 0.13 M162.87 38.23 C173.5 26, 184.14 13.76, 196.33 -0.26 M162.87 38.23 C174.33 25.05, 185.78 11.87, 196.33 -0.26 M168.51 37.83 C177.97 26.95, 187.43 16.07, 201.32 0.1 M168.51 37.83 C180.34 24.23, 192.16 10.63, 201.32 0.1 M173.5 38.19 C181.66 28.81, 189.82 19.43, 206.96 -0.3 M173.5 38.19 C181.71 28.74, 189.93 19.29, 206.96 -0.3 M179.14 37.8 C188.69 26.82, 198.23 15.84, 211.95 0.06 M179.14 37.8 C186.94 28.83, 194.73 19.87, 211.95 0.06 M184.13 38.16 C191.47 29.71, 198.82 21.26, 217.59 -0.33 M184.13 38.16 C194.69 26.01, 205.25 13.86, 217.59 -0.33 M189.77 37.77 C199.89 26.13, 210.01 14.49, 222.58 0.03 M189.77 37.77 C199.32 26.78, 208.87 15.79, 222.58 0.03 M194.76 38.13 C205.88 25.33, 217 12.54, 228.22 -0.36 M194.76 38.13 C204.86 26.5, 214.97 14.88, 228.22 -0.36 M200.4 37.73 C212.46 23.86, 224.51 9.99, 233.21 0 M200.4 37.73 C210.45 26.18, 220.49 14.63, 233.21 0 M205.39 38.09 C218.45 23.07, 231.51 8.04, 238.19 0.36 M205.39 38.09 C217.71 23.92, 230.03 9.75, 238.19 0.36 M211.03 37.7 C221.62 25.51, 232.21 13.33, 243.84 -0.04 M211.03 37.7 C223.81 23, 236.59 8.29, 243.84 -0.04 M216.02 38.06 C227.85 24.45, 239.68 10.84, 248.82 0.32 M216.02 38.06 C226.82 25.63, 237.62 13.21, 248.82 0.32 M221.01 38.42 C229.62 28.51, 238.23 18.61, 254.47 -0.07 M221.01 38.42 C233.4 24.16, 245.79 9.91, 254.47 -0.07 M226.65 38.02 C236.22 27.01, 245.79 16, 259.45 0.29 M226.65 38.02 C239.04 23.77, 251.44 9.51, 259.45 0.29 M231.64 38.38 C241.07 27.53, 250.51 16.68, 265.1 -0.11 M231.64 38.38 C244.99 23.02, 258.35 7.66, 265.1 -0.11 M237.28 37.99 C250.12 23.21, 262.97 8.44, 270.08 0.25 M237.28 37.99 C249.03 24.48, 260.77 10.97, 270.08 0.25 M242.27 38.35 C253.5 25.42, 264.74 12.49, 275.73 -0.14 M242.27 38.35 C253.93 24.93, 265.59 11.52, 275.73 -0.14 M247.91 37.95 C260.64 23.31, 273.38 8.66, 280.71 0.22 M247.91 37.95 C258.68 25.56, 269.46 13.17, 280.71 0.22 M252.9 38.31 C265.82 23.45, 278.74 8.58, 286.36 -0.18 M252.9 38.31 C260.03 30.11, 267.16 21.91, 286.36 -0.18 M258.54 37.92 C269.63 25.17, 280.71 12.41, 291.34 0.18 M258.54 37.92 C270.66 23.98, 282.78 10.04, 291.34 0.18 M263.53 38.28 C271.17 29.49, 278.81 20.7, 296.99 -0.21 M263.53 38.28 C273.87 26.38, 284.22 14.48, 296.99 -0.21 M269.17 37.88 C276.56 29.38, 283.95 20.88, 301.97 0.15 M269.17 37.88 C281.74 23.42, 294.31 8.96, 301.97 0.15 M274.16 38.24 C283.72 27.24, 293.29 16.24, 307.62 -0.25 M274.16 38.24 C283.36 27.66, 292.56 17.08, 307.62 -0.25 M279.8 37.85 C291.7 24.16, 303.6 10.47, 312.6 0.11 M279.8 37.85 C289.45 26.75, 299.1 15.65, 312.6 0.11 M284.79 38.21 C291.83 30.11, 298.86 22.02, 318.25 -0.28 M284.79 38.21 C293.84 27.8, 302.89 17.38, 318.25 -0.28 M290.43 37.82 C303.26 23.06, 316.08 8.31, 323.23 0.08 M290.43 37.82 C298.57 28.46, 306.7 19.09, 323.23 0.08 M295.42 38.18 C304.83 27.34, 314.25 16.51, 328.88 -0.31 M295.42 38.18 C308.06 23.63, 320.71 9.08, 328.88 -0.31 M301.06 37.78 C310.21 27.26, 319.35 16.74, 333.86 0.05 M301.06 37.78 C308.05 29.74, 315.04 21.71, 333.86 0.05 M306.05 38.14 C312.98 30.17, 319.91 22.2, 339.51 -0.35 M306.05 38.14 C312.77 30.4, 319.5 22.67, 339.51 -0.35 M311.69 37.75 C322.29 25.55, 332.89 13.35, 344.49 0.01 M311.69 37.75 C324.12 23.45, 336.54 9.16, 344.49 0.01 M316.68 38.11 C327.28 25.91, 337.89 13.71, 349.48 0.37 M316.68 38.11 C325.39 28.09, 334.1 18.07, 349.48 0.37 M322.32 37.71 C333.77 24.54, 345.22 11.36, 355.12 -0.02 M322.32 37.71 C334.03 24.24, 345.74 10.77, 355.12 -0.02 M327.31 38.07 C340.24 23.2, 353.16 8.33, 360.11 0.34 M327.31 38.07 C334.49 29.81, 341.68 21.54, 360.11 0.34 M332.95 37.68 C343.11 25.99, 353.27 14.3, 365.75 -0.06 M332.95 37.68 C345.46 23.29, 357.96 8.91, 365.75 -0.06 M337.94 38.04 C344.89 30.05, 351.83 22.05, 370.74 0.3 M337.94 38.04 C345.51 29.32, 353.09 20.61, 370.74 0.3 M342.93 38.4 C352.51 27.37, 362.09 16.35, 376.38 -0.09 M342.93 38.4 C353.19 26.59, 363.46 14.77, 376.38 -0.09 M348.57 38 C361.58 23.03, 374.59 8.06, 381.37 0.27 M348.57 38 C361.45 23.18, 374.34 8.36, 381.37 0.27 M353.56 38.36 C363.21 27.26, 372.87 16.15, 387.01 -0.13 M353.56 38.36 C360.62 30.23, 367.69 22.1, 387.01 -0.13 M359.2 37.97 C372.23 22.97, 385.27 7.98, 392 0.23 M359.2 37.97 C369.62 25.98, 380.04 13.99, 392 0.23 M364.19 38.33 C372.68 28.56, 381.16 18.8, 397.64 -0.16 M364.19 38.33 C377.35 23.18, 390.52 8.03, 397.64 -0.16 M369.83 37.93 C378.59 27.86, 387.35 17.78, 400.01 3.22 M369.83 37.93 C380.11 26.1, 390.4 14.27, 400.01 3.22 M374.82 38.29 C381.15 31.01, 387.48 23.72, 400.4 8.86 M374.82 38.29 C384.41 27.26, 394 16.23, 400.4 8.86 M380.46 37.9 C387.94 29.29, 395.43 20.68, 400.14 15.26 M380.46 37.9 C386.74 30.68, 393.02 23.45, 400.14 15.26 M385.45 38.26 C389.25 33.88, 393.06 29.5, 399.88 21.66 M385.45 38.26 C389.75 33.31, 394.05 28.37, 399.88 21.66 M391.09 37.87 C392.93 35.75, 394.77 33.63, 400.27 27.3 M391.09 37.87 C393.21 35.42, 395.34 32.98, 400.27 27.3 M396.08 38.23 C396.96 37.21, 397.84 36.19, 400.01 33.7 M396.08 38.23 C397.37 36.74, 398.66 35.26, 400.01 33.7 M0.05 38.05 C0.05 38.05, 0.05 38.05, 0.05 38.05 M0.05 38.05 C0.05 38.05, 0.05 38.05, 0.05 38.05 M6.45 38.31 C3.87 36.06, 1.29 33.82, -0.34 32.4 M6.45 38.31 C4.75 36.83, 3.04 35.35, -0.34 32.4 M12.09 37.91 C8.45 34.74, 4.8 31.57, 0.02 27.42 M12.09 37.91 C7.47 33.89, 2.85 29.88, 0.02 27.42 M18.49 38.17 C12.69 33.13, 6.89 28.09, -0.38 21.77 M18.49 38.17 C13.29 33.65, 8.09 29.13, -0.38 21.77 M24.13 37.78 C14.71 29.59, 5.29 21.4, -0.02 16.79 M24.13 37.78 C14.74 29.61, 5.35 21.45, -0.02 16.79 M30.53 38.04 C21.04 29.79, 11.56 21.55, 0.34 11.8 M30.53 38.04 C23.5 31.93, 16.46 25.81, 0.34 11.8 M36.93 38.3 C28.76 31.2, 20.59 24.1, -0.05 6.16 M36.93 38.3 C27.19 29.83, 17.44 21.36, -0.05 6.16 M42.57 37.91 C32.67 29.3, 22.76 20.69, 0.31 1.17 M42.57 37.91 C26.73 24.14, 10.89 10.36, 0.31 1.17 M48.97 38.17 C37.04 27.8, 25.12 17.43, 4.44 -0.54 M48.97 38.17 C31.41 22.9, 13.85 7.64, 4.44 -0.54 M54.61 37.77 C44.53 29.01, 34.45 20.25, 10.84 -0.28 M54.61 37.77 C38.18 23.49, 21.74 9.2, 10.84 -0.28 M61.01 38.04 C50.84 29.19, 40.66 20.35, 17.24 -0.02 M61.01 38.04 C48.24 26.93, 35.47 15.83, 17.24 -0.02 M67.41 38.3 C49.92 23.09, 32.42 7.88, 22.88 -0.41 M67.41 38.3 C52.68 25.49, 37.94 12.68, 22.88 -0.41 M73.05 37.9 C62.35 28.6, 51.65 19.3, 29.28 -0.15 M73.05 37.9 C56.08 23.15, 39.1 8.39, 29.28 -0.15 M79.45 38.16 C64.28 24.97, 49.1 11.78, 34.92 -0.54 M79.45 38.16 C63.46 24.27, 47.48 10.37, 34.92 -0.54 M85.09 37.77 C73.63 27.81, 62.17 17.84, 41.32 -0.28 M85.09 37.77 C74.76 28.78, 64.42 19.8, 41.32 -0.28 M91.49 38.03 C81.82 29.62, 72.15 21.22, 47.72 -0.02 M91.49 38.03 C74 22.82, 56.5 7.62, 47.72 -0.02 M97.89 38.29 C85.84 27.82, 73.8 17.35, 53.36 -0.41 M97.89 38.29 C83.97 26.19, 70.05 14.09, 53.36 -0.41 M103.53 37.9 C90.03 26.16, 76.52 14.42, 59.76 -0.15 M103.53 37.9 C94.14 29.74, 84.76 21.58, 59.76 -0.15 M109.93 38.16 C97.26 27.14, 84.58 16.13, 65.4 -0.55 M109.93 38.16 C100.36 29.84, 90.8 21.53, 65.4 -0.55 M115.57 37.76 C106.53 29.9, 97.49 22.04, 71.8 -0.29 M115.57 37.76 C98.63 23.04, 81.69 8.31, 71.8 -0.29 M121.97 38.03 C106.81 24.85, 91.65 11.67, 78.2 -0.02 M121.97 38.03 C110.49 28.05, 99.01 18.07, 78.2 -0.02 M128.37 38.29 C117.39 28.75, 106.42 19.21, 83.84 -0.42 M128.37 38.29 C114 25.79, 99.63 13.3, 83.84 -0.42 M134.01 37.89 C119.74 25.48, 105.46 13.08, 90.24 -0.16 M134.01 37.89 C121.05 26.62, 108.08 15.35, 90.24 -0.16 M140.41 38.15 C127.6 27.02, 114.8 15.89, 95.88 -0.55 M140.41 38.15 C129.33 28.52, 118.24 18.88, 95.88 -0.55 M146.05 37.76 C131.94 25.49, 117.83 13.23, 102.28 -0.29 M146.05 37.76 C133.8 27.11, 121.54 16.45, 102.28 -0.29 M152.45 38.02 C138.55 25.94, 124.66 13.86, 108.68 -0.03 M152.45 38.02 C143.05 29.85, 133.65 21.68, 108.68 -0.03 M158.85 38.28 C147.19 28.15, 135.54 18.02, 114.32 -0.42 M158.85 38.28 C145.55 26.72, 132.25 15.16, 114.32 -0.42 M164.49 37.89 C153.47 28.3, 142.44 18.72, 120.72 -0.16 M164.49 37.89 C151.75 26.81, 139 15.73, 120.72 -0.16 M170.89 38.15 C157.58 26.58, 144.27 15.01, 126.36 -0.56 M170.89 38.15 C154.89 24.25, 138.9 10.34, 126.36 -0.56 M176.53 37.76 C161.89 25.03, 147.25 12.3, 132.76 -0.3 M176.53 37.76 C160.28 23.63, 144.04 9.51, 132.76 -0.3 M182.93 38.02 C173.44 29.77, 163.95 21.51, 139.16 -0.03 M182.93 38.02 C165.84 23.16, 148.74 8.3, 139.16 -0.03 M189.33 38.28 C174.31 25.22, 159.29 12.17, 144.8 -0.43 M189.33 38.28 C172.87 23.97, 156.41 9.67, 144.8 -0.43 M194.97 37.88 C185.06 29.27, 175.15 20.65, 151.2 -0.17 M194.97 37.88 C184.32 28.63, 173.67 19.37, 151.2 -0.17 M201.37 38.15 C185.32 24.2, 169.28 10.25, 156.84 -0.56 M201.37 38.15 C191.44 29.51, 181.51 20.88, 156.84 -0.56 M207.01 37.75 C190.95 23.79, 174.89 9.83, 163.24 -0.3 M207.01 37.75 C194.31 26.71, 181.61 15.67, 163.24 -0.3 M213.41 38.01 C203.26 29.19, 193.11 20.37, 169.64 -0.04 M213.41 38.01 C200.71 26.97, 188.01 15.94, 169.64 -0.04 M219.81 38.27 C206.21 26.46, 192.62 14.64, 175.28 -0.43 M219.81 38.27 C209.76 29.54, 199.71 20.81, 175.28 -0.43 M225.45 37.88 C211.97 26.16, 198.49 14.44, 181.68 -0.17 M225.45 37.88 C210.08 24.52, 194.71 11.16, 181.68 -0.17 M231.85 38.14 C216.83 25.09, 201.82 12.04, 187.32 -0.57 M231.85 38.14 C220 27.84, 208.16 17.55, 187.32 -0.57 M237.49 37.75 C225.53 27.35, 213.57 16.95, 193.72 -0.31 M237.49 37.75 C228.36 29.81, 219.24 21.88, 193.72 -0.31 M243.89 38.01 C227 23.32, 210.1 8.64, 200.12 -0.04 M243.89 38.01 C228.59 24.71, 213.29 11.41, 200.12 -0.04 M250.29 38.27 C235.14 25.1, 219.98 11.93, 205.76 -0.44 M250.29 38.27 C237.54 27.19, 224.79 16.1, 205.76 -0.44 M255.93 37.87 C247.04 30.14, 238.14 22.41, 212.16 -0.18 M255.93 37.87 C241.21 25.08, 226.49 12.28, 212.16 -0.18 M262.33 38.14 C251.4 28.64, 240.48 19.14, 218.55 0.08 M262.33 38.14 C252.23 29.36, 242.13 20.58, 218.55 0.08 M267.97 37.74 C251.83 23.71, 235.7 9.69, 224.2 -0.31 M267.97 37.74 C258.85 29.81, 249.73 21.89, 224.2 -0.31 M274.37 38 C262.55 27.73, 250.73 17.45, 230.59 -0.05 M274.37 38 C260.82 26.23, 247.27 14.45, 230.59 -0.05 M280.77 38.26 C267.84 27.03, 254.92 15.79, 236.24 -0.44 M280.77 38.26 C268.77 27.83, 256.77 17.4, 236.24 -0.44 M286.41 37.87 C268.96 22.7, 251.51 7.53, 242.64 -0.18 M286.41 37.87 C277.11 29.78, 267.8 21.7, 242.64 -0.18 M292.81 38.13 C283.88 30.37, 274.96 22.61, 249.03 0.08 M292.81 38.13 C277.69 24.99, 262.56 11.84, 249.03 0.08 M298.45 37.74 C282.68 24.03, 266.91 10.32, 254.68 -0.32 M298.45 37.74 C287.44 28.17, 276.44 18.6, 254.68 -0.32 M304.85 38 C288.49 23.78, 272.13 9.55, 261.07 -0.05 M304.85 38 C288.04 23.39, 271.24 8.78, 261.07 -0.05 M311.25 38.26 C301.97 30.2, 292.7 22.14, 266.72 -0.45 M311.25 38.26 C295.22 24.33, 279.2 10.4, 266.72 -0.45 M316.89 37.86 C304.1 26.75, 291.32 15.64, 273.12 -0.19 M316.89 37.86 C305.76 28.19, 294.63 18.52, 273.12 -0.19 M323.29 38.13 C309.11 25.8, 294.93 13.48, 279.51 0.07 M323.29 38.13 C310.46 26.97, 297.63 15.82, 279.51 0.07 M328.93 37.73 C316.71 27.11, 304.49 16.49, 285.16 -0.32 M328.93 37.73 C313.7 24.5, 298.48 11.26, 285.16 -0.32 M335.33 37.99 C325.85 29.76, 316.38 21.52, 291.55 -0.06 M335.33 37.99 C325.32 29.3, 315.32 20.6, 291.55 -0.06 M341.72 38.25 C329.1 27.28, 316.48 16.31, 297.2 -0.45 M341.72 38.25 C324.89 23.62, 308.06 8.99, 297.2 -0.45 M347.37 37.86 C333.2 25.55, 319.04 13.23, 303.59 -0.19 M347.37 37.86 C331.38 23.96, 315.39 10.06, 303.59 -0.19 M353.77 38.12 C341.43 27.4, 329.1 16.68, 309.99 0.07 M353.77 38.12 C337.14 23.67, 320.52 9.22, 309.99 0.07 M359.41 37.73 C350.17 29.7, 340.93 21.67, 315.64 -0.33 M359.41 37.73 C345.21 25.38, 331 13.03, 315.64 -0.33 M365.81 37.99 C353.61 27.38, 341.41 16.78, 322.03 -0.06 M365.81 37.99 C352.23 26.19, 338.66 14.39, 322.03 -0.06 M372.2 38.25 C355.62 23.83, 339.03 9.41, 327.68 -0.46 M372.2 38.25 C356.67 24.74, 341.13 11.24, 327.68 -0.46 M377.85 37.85 C364.41 26.17, 350.97 14.49, 334.07 -0.2 M377.85 37.85 C366.99 28.42, 356.14 18.98, 334.07 -0.2 M384.25 38.12 C374.18 29.37, 364.12 20.62, 340.47 0.06 M384.25 38.12 C370.96 26.57, 357.68 15.02, 340.47 0.06 M389.89 37.72 C379.91 29.05, 369.94 20.38, 346.12 -0.33 M389.89 37.72 C372.64 22.73, 355.39 7.74, 346.12 -0.33 M396.29 37.98 C381.69 25.3, 367.1 12.62, 352.51 -0.07 M396.29 37.98 C384.26 27.53, 372.23 17.07, 352.51 -0.07 M400.42 36.28 C386.46 24.14, 372.5 12, 358.16 -0.46 M400.42 36.28 C388.97 26.33, 377.53 16.37, 358.16 -0.46 M400.03 30.63 C387.22 19.5, 374.42 8.37, 364.55 -0.2 M400.03 30.63 C386.85 19.18, 373.68 7.73, 364.55 -0.2 M400.39 25.65 C390.63 17.16, 380.87 8.68, 370.95 0.06 M400.39 25.65 C390.88 17.38, 381.37 9.12, 370.95 0.06 M400.75 20.66 C393.04 13.96, 385.33 7.26, 376.59 -0.33 M400.75 20.66 C392.93 13.86, 385.11 7.07, 376.59 -0.33 M400.35 15.02 C393.81 9.33, 387.26 3.64, 382.99 -0.07 M400.35 15.02 C394.85 10.24, 389.35 5.46, 382.99 -0.07 M400.71 10.03 C396.58 6.44, 392.45 2.85, 388.64 -0.47 M400.71 10.03 C397.28 7.05, 393.85 4.06, 388.64 -0.47 M400.32 4.39 C399.05 3.28, 397.78 2.18, 395.03 -0.21 M400.32 4.39 C398.52 2.82, 396.72 1.26, 395.03 -0.21" stroke="#ffc9c9" stroke-width="0.5" fill="none"></path><path d="M0 0 C84.81 0, 169.62 0, 400 0 M0 0 C119.11 0, 238.22 0, 400 0 M400 0 C400 13.37, 400 26.75, 400 38 M400 0 C400 12.67, 400 25.34, 400 38 M400 38 C304.49 38, 208.97 38, 0 38 M400 38 C243.78 38, 87.55 38, 0 38 M0 38 C0 24.43, 0 10.86, 0 0 M0 38 C0 25.29, 0 12.58, 0 0" stroke="#1e1e1e" stroke-width="1" fill="none"></path></g><g transform="translate(118.62890625 762.1) rotate(0 91.37109375 6.899999999999999)"><text x="91.37109375" y="10.140234374999999" font-family="Helvetica, sans-serif, Segoe UI Emoji" font-size="12px" fill="#1e1e1e" text-anchor="middle" style="white-space: pre;" direction="ltr" dominant-baseline="alphabetic">kernel.org mirror sync infra outage</text></g><g stroke-linecap="round" transform="translate(10 270) rotate(0 150 19)"><path d="M0 0 L300 0 L300 38 L0 38" stroke="none" stroke-width="0" fill="#d0bfff"></path><path d="M0 0 C73.84 0, 147.68 0, 300 0 M0 0 C70.08 0, 140.15 0, 300 0 M300 0 C300 9.12, 300 18.24, 300 38 M300 0 C300 14.87, 300 29.74, 300 38 M300 38 C198.72 38, 97.45 38, 0 38 M300 38 C227.33 38, 154.67 38, 0 38 M0 38 C0 25.2, 0 12.4, 0 0 M0 38 C0 27.64, 0 17.29, 0 0" stroke="#1e1e1e" stroke-width="1" fill="none"></path></g><g transform="translate(47.9453125 282.1) rotate(0 112.0546875 6.899999999999977)"><text x="112.0546875" y="10.140234374999999" font-family="Helvetica, sans-serif, Segoe UI Emoji" font-size="12px" fill="#1e1e1e" text-anchor="middle" style="white-space: pre;" direction="ltr" dominant-baseline="alphabetic">Directly downloading kernel artifacts failed</text></g><g stroke-linecap="round"><g transform="translate(709.8666666666667 164.4999999999999) rotate(0 -125.05833333333337 -22.499999999999943)"><path d="M0 0 C0 -4.35, 0 -8.7, 0 -11.25 M0 0 C0 -3.9, 0 -7.81, 0 -11.25 M0 -11.25 C0 -18.75, -3.75 -22.5, -11.25 -22.5 M0 -11.25 C0 -18.75, -3.75 -22.5, -11.25 -22.5 M-11.25 -22.5 C-58.65 -22.5, -106.04 -22.5, -238.87 -22.5 M-11.25 -22.5 C-81.09 -22.5, -150.92 -22.5, -238.87 -22.5 M-238.87 -22.5 C-246.37 -22.5, -250.12 -26.25, -250.12 -33.75 M-238.87 -22.5 C-246.37 -22.5, -250.12 -26.25, -250.12 -33.75 M-250.12 -33.75 C-250.12 -37.04, -250.12 -40.34, -250.12 -45 M-250.12 -33.75 C-250.12 -37.42, -250.12 -41.1, -250.12 -45" stroke="#1e1e1e" stroke-width="1" fill="none"></path></g></g><mask></mask><g stroke-linecap="round"><g transform="translate(159.89999999999992 164.4999999999999) rotate(0 149.925 -22.499999999999943)"><path d="M0 0 C0 -3.67, 0 -7.35, 0 -11.25 M0 0 C0 -3.07, 0 -6.14, 0 -11.25 M0 -11.25 C0 -18.75, 3.75 -22.5, 11.25 -22.5 M0 -11.25 C0 -18.75, 3.75 -22.5, 11.25 -22.5 M11.25 -22.5 C117.54 -22.5, 223.83 -22.5, 288.6 -22.5 M11.25 -22.5 C90.54 -22.5, 169.83 -22.5, 288.6 -22.5 M288.6 -22.5 C296.1 -22.5, 299.85 -26.25, 299.85 -33.75 M288.6 -22.5 C296.1 -22.5, 299.85 -26.25, 299.85 -33.75 M299.85 -33.75 C299.85 -37.08, 299.85 -40.4, 299.85 -45 M299.85 -33.75 C299.85 -37.36, 299.85 -40.98, 299.85 -45" stroke="#1e1e1e" stroke-width="1" fill="none"></path></g></g><mask></mask><g stroke-linecap="round"><g transform="translate(459.74999999999994 84.49999999999989) rotate(0 0.06250000000001421 -15.499999999999943)"><path d="M0 0 C0.04 -11.01, 0.09 -22.02, 0.13 -31 M0 0 C0.04 -8.86, 0.07 -17.73, 0.13 -31" stroke="#1e1e1e" stroke-width="1" fill="none"></path></g><g transform="translate(459.74999999999994 84.49999999999989) rotate(0 0.06250000000001421 -15.499999999999943)"><path d="M0.13 -31 L6.41 -17.38 L-6.27 -17.43 L0.13 -31" stroke="none" stroke-width="0" fill="#1e1e1e" fill-rule="evenodd"></path><path d="M0.13 -31 C2.36 -26.16, 4.59 -21.33, 6.41 -17.38 M0.13 -31 C1.92 -27.11, 3.72 -23.21, 6.41 -17.38 M6.41 -17.38 C2.27 -17.4, -1.87 -17.41, -6.27 -17.43 M6.41 -17.38 C3 -17.39, -0.41 -17.41, -6.27 -17.43 M-6.27 -17.43 C-4.77 -20.62, -3.27 -23.81, 0.13 -31 M-6.27 -17.43 C-4.26 -21.69, -2.26 -25.95, 0.13 -31 M0.13 -31 C0.13 -31, 0.13 -31, 0.13 -31 M0.13 -31 C0.13 -31, 0.13 -31, 0.13 -31" stroke="#1e1e1e" stroke-width="1" fill="none"></path></g></g><mask></mask><g stroke-linecap="round"><g transform="translate(159.89999999999992 264.5) rotate(0 0 -25.5)"><path d="M0 0 C0 -16.99, 0 -33.99, 0 -51 M0 0 C0 -12.5, 0 -24.99, 0 -51" stroke="#1e1e1e" stroke-width="1" fill="none"></path></g><g transform="translate(159.89999999999992 264.5) rotate(0 0 -25.5)"><path d="M0 -51 L6.34 -37.41 L-6.34 -37.41 L0 -51" stroke="none" stroke-width="0" fill="#1e1e1e" fill-rule="evenodd"></path><path d="M0 -51 C2.11 -46.47, 4.22 -41.94, 6.34 -37.41 M0 -51 C1.55 -47.67, 3.11 -44.34, 6.34 -37.41 M6.34 -37.41 C3.71 -37.41, 1.09 -37.41, -6.34 -37.41 M6.34 -37.41 C2.95 -37.41, -0.43 -37.41, -6.34 -37.41 M-6.34 -37.41 C-4.65 -41.04, -2.95 -44.67, 0 -51 M-6.34 -37.41 C-4.38 -41.6, -2.42 -45.8, 0 -51 M0 -51 C0 -51, 0 -51, 0 -51 M0 -51 C0 -51, 0 -51, 0 -51" stroke="#1e1e1e" stroke-width="1" fill="none"></path></g></g><mask></mask><g stroke-linecap="round"><g transform="translate(209.86666666666667 744.5) rotate(0 -24.983333333333377 -215.49999999999997)"><path d="M0 0 C0 -90.41, 0 -180.82, 0 -338.5 M0 0 C0 -104.54, 0 -209.07, 0 -338.5 M0 -338.5 C0 -349.17, -5.33 -354.5, -16 -354.5 M0 -338.5 C0 -349.17, -5.33 -354.5, -16 -354.5 M-16 -354.5 C-22.16 -354.5, -28.32 -354.5, -33.97 -354.5 M-16 -354.5 C-21.64 -354.5, -27.28 -354.5, -33.97 -354.5 M-33.97 -354.5 C-44.63 -354.5, -49.97 -359.83, -49.97 -370.5 M-33.97 -354.5 C-44.63 -354.5, -49.97 -359.83, -49.97 -370.5 M-49.97 -370.5 C-49.97 -388.02, -49.97 -405.55, -49.97 -431 M-49.97 -370.5 C-49.97 -394.51, -49.97 -418.52, -49.97 -431" stroke="#1e1e1e" stroke-width="1" fill="none"></path></g><g transform="translate(209.86666666666667 744.5) rotate(0 -24.983333333333377 -215.49999999999997)"><path d="M-49.97 -431 L-43.63 -417.41 L-56.31 -417.41 L-49.97 -431" stroke="none" stroke-width="0" fill="#1e1e1e" fill-rule="evenodd"></path><path d="M-49.97 -431 C-48.27 -427.37, -46.58 -423.74, -43.63 -417.41 M-49.97 -431 C-48.01 -426.8, -46.05 -422.6, -43.63 -417.41 M-43.63 -417.41 C-47.55 -417.41, -51.47 -417.41, -56.31 -417.41 M-43.63 -417.41 C-47.48 -417.41, -51.33 -417.41, -56.31 -417.41 M-56.31 -417.41 C-54.6 -421.06, -52.9 -424.71, -49.97 -431 M-56.31 -417.41 C-54.57 -421.13, -52.83 -424.86, -49.97 -431 M-49.97 -431 C-49.97 -431, -49.97 -431, -49.97 -431 M-49.97 -431 C-49.97 -431, -49.97 -431, -49.97 -431" stroke="#1e1e1e" stroke-width="1" fill="none"></path></g></g><mask></mask><g stroke-linecap="round" transform="translate(750 370) rotate(0 200 19)"><path d="M0 0 L400 0 L400 38 L0 38" stroke="none" stroke-width="0" fill="#ffffff"></path><path d="M0 0 C151.29 0, 302.58 0, 400 0 M0 0 C139.38 0, 278.75 0, 400 0 M400 0 C400 12.94, 400 25.89, 400 38 M400 0 C400 8.77, 400 17.54, 400 38 M400 38 C263.18 38, 126.37 38, 0 38 M400 38 C282.35 38, 164.71 38, 0 38 M0 38 C0 25.12, 0 12.24, 0 0 M0 38 C0 23.49, 0 8.98, 0 0" stroke="#1e1e1e" stroke-width="1" fill="none"></path></g><g transform="translate(775.9033203125 375.2) rotate(0 174.0966796875 13.800000000000011)"><text x="174.0966796875" y="10.140234374999999" font-family="Helvetica, sans-serif, Segoe UI Emoji" font-size="12px" fill="#1e1e1e" text-anchor="middle" style="white-space: pre;" direction="ltr" dominant-baseline="alphabetic">crosstool-ng unable to find known-good kernel version archives in</text><text x="174.0966796875" y="23.940234374999996" font-family="Helvetica, sans-serif, Segoe UI Emoji" font-size="12px" fill="#1e1e1e" text-anchor="middle" style="white-space: pre;" direction="ltr" dominant-baseline="alphabetic">kernel.org mirror</text></g><g stroke-linecap="round" transform="translate(850 450) rotate(0 100 12)"><path d="M0 0 L200 0 L200 24 L0 24" stroke="none" stroke-width="0" fill="#ffec99"></path><path d="M0 0 C69.71 0, 139.42 0, 200 0 M0 0 C53 0, 105.99 0, 200 0 M200 0 C200 7.68, 200 15.35, 200 24 M200 0 C200 5.2, 200 10.41, 200 24 M200 24 C123.52 24, 47.03 24, 0 24 M200 24 C135.18 24, 70.35 24, 0 24 M0 24 C0 15.18, 0 6.36, 0 0 M0 24 C0 14.98, 0 5.96, 0 0" stroke="#1e1e1e" stroke-width="1" fill="none"></path></g><g transform="translate(937.33203125 455.1) rotate(0 12.66796875 6.900000000000006)"><text x="12.66796875" y="10.140234374999999" font-family="Helvetica, sans-serif, Segoe UI Emoji" font-size="12px" fill="#1e1e1e" text-anchor="middle" style="white-space: pre;" direction="ltr" dominant-baseline="alphabetic">AND</text></g><g stroke-linecap="round"><g transform="translate(949.9 444.5) rotate(0 0 -15.5)"><path d="M0 0 C0 -8.21, 0 -16.43, 0 -31 M0 0 C0 -7, 0 -14, 0 -31" stroke="#1e1e1e" stroke-width="1" fill="none"></path></g><g transform="translate(949.9 444.5) rotate(0 0 -15.5)"><path d="M0 -31 L6.34 -17.41 L-6.34 -17.41 L0 -31" stroke="none" stroke-width="0" fill="#1e1e1e" fill-rule="evenodd"></path><path d="M0 -31 C1.68 -27.4, 3.36 -23.8, 6.34 -17.41 M0 -31 C1.43 -27.93, 2.86 -24.86, 6.34 -17.41 M6.34 -17.41 C1.45 -17.41, -3.43 -17.41, -6.34 -17.41 M6.34 -17.41 C1.62 -17.41, -3.09 -17.41, -6.34 -17.41 M-6.34 -17.41 C-3.9 -22.64, -1.46 -27.87, 0 -31 M-6.34 -17.41 C-4.57 -21.2, -2.8 -24.99, 0 -31 M0 -31 C0 -31, 0 -31, 0 -31 M0 -31 C0 -31, 0 -31, 0 -31" stroke="#1e1e1e" stroke-width="1" fill="none"></path></g></g><mask></mask><g stroke-linecap="round" transform="translate(530 570) rotate(0 100.00000000000001 40)"><path d="M0 0 L200 0 L200 80 L0 80" stroke="none" stroke-width="0" fill="#d0bfff"></path><path d="M0 0 C78.76 0, 157.52 0, 200 0 M0 0 C71.28 0, 142.56 0, 200 0 M200 0 C200 20.11, 200 40.21, 200 80 M200 0 C200 20.5, 200 41, 200 80 M200 80 C133.25 80, 66.5 80, 0 80 M200 80 C132.52 80, 65.03 80, 0 80 M0 80 C0 58.36, 0 36.73, 0 0 M0 80 C0 51.61, 0 23.23, 0 0" stroke="#1e1e1e" stroke-width="1" fill="none"></path></g><g transform="translate(538.2890625 582.4) rotate(0 91.7109375 27.599999999999994)"><text x="91.7109375" y="10.140234374999999" font-family="Helvetica, sans-serif, Segoe UI Emoji" font-size="12px" fill="#1e1e1e" text-anchor="middle" style="white-space: pre;" direction="ltr" dominant-baseline="alphabetic">ci-mirrors didn't mirror specific</text><text x="91.7109375" y="23.940234374999996" font-family="Helvetica, sans-serif, Segoe UI Emoji" font-size="12px" fill="#1e1e1e" text-anchor="middle" style="white-space: pre;" direction="ltr" dominant-baseline="alphabetic">versioned kernel sources under ci-</text><text x="91.7109375" y="37.740234375" font-family="Helvetica, sans-serif, Segoe UI Emoji" font-size="12px" fill="#1e1e1e" text-anchor="middle" style="white-space: pre;" direction="ltr" dominant-baseline="alphabetic">mirrors rustc/ namespace with</text><text x="91.7109375" y="51.540234375" font-family="Helvetica, sans-serif, Segoe UI Emoji" font-size="12px" fill="#1e1e1e" text-anchor="middle" style="white-space: pre;" direction="ltr" dominant-baseline="alphabetic">known-good filenames</text></g><g stroke-linecap="round" transform="translate(750 570) rotate(0 100 40)"><path d="M0 0 C0 0, 0 0, 0 0 M0 0 C0 0, 0 0, 0 0 M-0.26 6.4 C1 4.95, 2.25 3.51, 4.99 0.36 M-0.26 6.4 C1.75 4.08, 3.76 1.77, 4.99 0.36 M0.13 12.04 C3.1 8.63, 6.07 5.21, 10.63 -0.03 M0.13 12.04 C3.92 7.69, 7.7 3.34, 10.63 -0.03 M-0.13 18.44 C4.31 13.33, 8.76 8.22, 15.62 0.33 M-0.13 18.44 C5.55 11.9, 11.23 5.37, 15.62 0.33 M0.27 24.08 C7.52 15.74, 14.77 7.4, 21.26 -0.07 M0.27 24.08 C4.7 18.98, 9.14 13.87, 21.26 -0.07 M0 30.48 C7.56 21.79, 15.11 13.1, 26.25 0.29 M0 30.48 C6.64 22.85, 13.27 15.22, 26.25 0.29 M-0.26 36.88 C7.44 28.02, 15.14 19.17, 31.89 -0.1 M-0.26 36.88 C7.24 28.25, 14.74 19.63, 31.89 -0.1 M0.14 42.52 C9.34 31.94, 18.54 21.35, 36.88 0.26 M0.14 42.52 C7.57 33.97, 15 25.42, 36.88 0.26 M-0.12 48.92 C12.58 34.31, 25.28 19.7, 42.52 -0.14 M-0.12 48.92 C8.61 38.87, 17.34 28.83, 42.52 -0.14 M0.27 54.56 C14.05 38.71, 27.83 22.86, 47.51 0.22 M0.27 54.56 C17.94 34.23, 35.61 13.9, 47.51 0.22 M0.01 60.96 C14.97 43.75, 29.93 26.54, 53.15 -0.17 M0.01 60.96 C12.05 47.11, 24.1 33.25, 53.15 -0.17 M-0.25 67.36 C15.04 49.77, 30.33 32.17, 58.14 0.19 M-0.25 67.36 C20.47 43.52, 41.19 19.69, 58.14 0.19 M0.14 73 C24.3 45.21, 48.45 17.43, 63.78 -0.21 M0.14 73 C20.6 49.46, 41.06 25.93, 63.78 -0.21 M-0.12 79.4 C23.24 52.53, 46.59 25.66, 68.77 0.15 M-0.12 79.4 C24.21 51.42, 48.53 23.43, 68.77 0.15 M4.21 80.51 C18.9 63.61, 33.59 46.72, 74.41 -0.24 M4.21 80.51 C20.63 61.63, 37.05 42.74, 74.41 -0.24 M9.86 80.12 C25.82 61.76, 41.78 43.4, 79.4 0.12 M9.86 80.12 C37.62 48.17, 65.39 16.23, 79.4 0.12 M14.84 80.48 C30 63.04, 45.16 45.6, 85.04 -0.28 M14.84 80.48 C30.99 61.9, 47.14 43.32, 85.04 -0.28 M20.49 80.08 C46.06 50.67, 71.63 21.25, 90.03 0.08 M20.49 80.08 C44.52 52.43, 68.56 24.78, 90.03 0.08 M25.47 80.44 C44.65 58.39, 63.82 36.33, 95.67 -0.31 M25.47 80.44 C46.41 56.35, 67.35 32.27, 95.67 -0.31 M31.12 80.05 C53.1 54.76, 75.09 29.47, 100.66 0.05 M31.12 80.05 C49.64 58.73, 68.17 37.42, 100.66 0.05 M36.1 80.41 C55.93 57.6, 75.75 34.8, 106.3 -0.34 M36.1 80.41 C60.58 52.25, 85.06 24.09, 106.3 -0.34 M41.75 80.01 C67.17 50.77, 92.59 21.53, 111.29 0.02 M41.75 80.01 C59.66 59.4, 77.58 38.79, 111.29 0.02 M46.73 80.37 C72.71 50.49, 98.68 20.61, 116.27 0.38 M46.73 80.37 C61.57 63.31, 76.4 46.25, 116.27 0.38 M52.38 79.98 C75.65 53.2, 98.93 26.43, 121.92 -0.02 M52.38 79.98 C68.87 61.01, 85.36 42.03, 121.92 -0.02 M57.36 80.34 C78.53 56, 99.69 31.65, 126.91 0.34 M57.36 80.34 C74.46 60.67, 91.56 41, 126.91 0.34 M62.35 80.7 C88.36 50.78, 114.37 20.86, 132.55 -0.05 M62.35 80.7 C86.56 52.85, 110.77 25, 132.55 -0.05 M67.99 80.31 C86.13 59.44, 104.26 38.58, 137.54 0.31 M67.99 80.31 C90.4 54.53, 112.81 28.75, 137.54 0.31 M72.98 80.67 C97.41 52.56, 121.85 24.45, 143.18 -0.09 M72.98 80.67 C97.01 53.02, 121.05 25.37, 143.18 -0.09 M78.62 80.27 C96.5 59.71, 114.38 39.14, 148.17 0.27 M78.62 80.27 C95.31 61.08, 111.99 41.89, 148.17 0.27 M83.61 80.63 C102.6 58.79, 121.59 36.94, 153.81 -0.12 M83.61 80.63 C98.58 63.41, 113.55 46.19, 153.81 -0.12 M89.25 80.24 C112.57 53.41, 135.89 26.58, 158.8 0.24 M89.25 80.24 C111.4 54.76, 133.54 29.29, 158.8 0.24 M94.24 80.6 C113.13 58.86, 132.02 37.13, 164.44 -0.16 M94.24 80.6 C119.71 51.29, 145.18 21.99, 164.44 -0.16 M99.88 80.2 C125.34 50.92, 150.79 21.64, 169.43 0.2 M99.88 80.2 C127.64 48.27, 155.39 16.34, 169.43 0.2 M104.87 80.56 C119.14 64.14, 133.42 47.72, 175.07 -0.19 M104.87 80.56 C120.21 62.91, 135.56 45.26, 175.07 -0.19 M110.51 80.17 C127.73 60.36, 144.95 40.56, 180.06 0.17 M110.51 80.17 C127.57 60.55, 144.62 40.93, 180.06 0.17 M115.5 80.53 C133.8 59.47, 152.11 38.42, 185.7 -0.23 M115.5 80.53 C131.61 61.99, 147.72 43.46, 185.7 -0.23 M121.14 80.13 C142.47 55.6, 163.79 31.07, 190.69 0.13 M121.14 80.13 C144.92 52.78, 168.7 25.43, 190.69 0.13 M126.13 80.49 C151.19 51.67, 176.25 22.84, 196.33 -0.26 M126.13 80.49 C144.86 58.95, 163.58 37.41, 196.33 -0.26 M131.77 80.1 C152.1 56.72, 172.42 33.34, 200 1.61 M131.77 80.1 C151.97 56.86, 172.17 33.62, 200 1.61 M136.76 80.46 C157.91 56.13, 179.07 31.79, 199.74 8.01 M136.76 80.46 C150.82 64.29, 164.87 48.12, 199.74 8.01 M142.4 80.06 C154.19 66.5, 165.98 52.94, 200.14 13.65 M142.4 80.06 C156.06 64.35, 169.72 48.64, 200.14 13.65 M147.39 80.42 C166.77 58.13, 186.15 35.83, 199.88 20.05 M147.39 80.42 C158.6 67.53, 169.82 54.63, 199.88 20.05 M153.03 80.03 C164.21 67.17, 175.39 54.31, 200.27 25.69 M153.03 80.03 C163.15 68.39, 173.27 56.75, 200.27 25.69 M158.02 80.39 C173.02 63.13, 188.03 45.87, 200.01 32.09 M158.02 80.39 C173.76 62.29, 189.49 44.19, 200.01 32.09 M163.66 80 C172.12 70.27, 180.57 60.55, 199.75 38.49 M163.66 80 C170.94 71.63, 178.21 63.26, 199.75 38.49 M168.65 80.36 C178.98 68.47, 189.32 56.58, 200.14 44.13 M168.65 80.36 C177 70.75, 185.35 61.15, 200.14 44.13 M173.64 80.72 C180.57 72.74, 187.51 64.76, 199.88 50.53 M173.64 80.72 C181.33 71.87, 189.02 63.02, 199.88 50.53 M179.28 80.32 C184.28 74.57, 189.28 68.82, 200.27 56.17 M179.28 80.32 C184.85 73.92, 190.41 67.52, 200.27 56.17 M184.27 80.68 C187.76 76.66, 191.26 72.64, 200.01 62.57 M184.27 80.68 C189.07 75.15, 193.88 69.62, 200.01 62.57 M189.91 80.29 C193.57 76.08, 197.22 71.88, 199.75 68.97 M189.91 80.29 C193.62 76.02, 197.33 71.75, 199.75 68.97 M194.9 80.65 C196.11 79.25, 197.32 77.86, 200.15 74.61 M194.9 80.65 C196.87 78.38, 198.85 76.1, 200.15 74.61" stroke="#d0bfff" stroke-width="0.5" fill="none"></path><path d="M0 0 C75.34 0, 150.68 0, 200 0 M0 0 C54.29 0, 108.57 0, 200 0 M200 0 C200 24.71, 200 49.41, 200 80 M200 0 C200 24.78, 200 49.56, 200 80 M200 80 C147.81 80, 95.63 80, 0 80 M200 80 C147.1 80, 94.2 80, 0 80 M0 80 C0 56.46, 0 32.92, 0 0 M0 80 C0 48.05, 0 16.11, 0 0" stroke="#1e1e1e" stroke-width="1" fill="none"></path></g><g transform="translate(759.6220703125 589.3) rotate(0 90.3779296875 20.700000000000003)"><text x="90.3779296875" y="10.140234374999999" font-family="Helvetica, sans-serif, Segoe UI Emoji" font-size="12px" fill="#1e1e1e" text-anchor="middle" style="white-space: pre;" direction="ltr" dominant-baseline="alphabetic">crosstool-ng configuration in dist-*</text><text x="90.3779296875" y="23.940234374999996" font-family="Helvetica, sans-serif, Segoe UI Emoji" font-size="12px" fill="#1e1e1e" text-anchor="middle" style="white-space: pre;" direction="ltr" dominant-baseline="alphabetic">job .defconfig allows both built-in</text><text x="90.3779296875" y="37.740234375" font-family="Helvetica, sans-serif, Segoe UI Emoji" font-size="12px" fill="#1e1e1e" text-anchor="middle" style="white-space: pre;" direction="ltr" dominant-baseline="alphabetic">and custom mirrors to be used</text></g><g stroke-linecap="round" transform="translate(310 570) rotate(0 100 40)"><path d="M0 0 L200 0 L200 80 L0 80" stroke="none" stroke-width="0" fill="#ffffff"></path><path d="M0 0 C64.31 0, 128.62 0, 200 0 M0 0 C66.62 0, 133.23 0, 200 0 M200 0 C200 30.75, 200 61.49, 200 80 M200 0 C200 18.99, 200 37.99, 200 80 M200 80 C140.95 80, 81.9 80, 0 80 M200 80 C128.31 80, 56.62 80, 0 80 M0 80 C0 55.31, 0 30.62, 0 0 M0 80 C0 48.52, 0 17.04, 0 0" stroke="#1e1e1e" stroke-width="1" fill="none"></path></g><g transform="translate(322.63671875 589.3) rotate(0 87.36328125 20.700000000000003)"><text x="87.36328125" y="10.140234374999999" font-family="Helvetica, sans-serif, Segoe UI Emoji" font-size="12px" fill="#1e1e1e" text-anchor="middle" style="white-space: pre;" direction="ltr" dominant-baseline="alphabetic">ci-mirrors is one of the candidate</text><text x="87.36328125" y="23.940234374999996" font-family="Helvetica, sans-serif, Segoe UI Emoji" font-size="12px" fill="#1e1e1e" text-anchor="middle" style="white-space: pre;" direction="ltr" dominant-baseline="alphabetic">mirrors searched by crosstool-ng</text><text x="87.36328125" y="37.740234375" font-family="Helvetica, sans-serif, Segoe UI Emoji" font-size="12px" fill="#1e1e1e" text-anchor="middle" style="white-space: pre;" direction="ltr" dominant-baseline="alphabetic">for known-good version artifacts</text></g><g stroke-linecap="round"><g transform="translate(409.9 564.5) rotate(0 270 -42.5)"><path d="M0 0 C0 -10.58, 0 -21.17, 0 -26.5 M0 0 C0 -9.8, 0 -19.61, 0 -26.5 M0 -26.5 C0 -37.17, 5.33 -42.5, 16 -42.5 M0 -26.5 C0 -37.17, 5.33 -42.5, 16 -42.5 M16 -42.5 C166.26 -42.5, 316.51 -42.5, 524 -42.5 M16 -42.5 C215.16 -42.5, 414.32 -42.5, 524 -42.5 M524 -42.5 C534.67 -42.5, 540 -47.83, 540 -58.5 M524 -42.5 C534.67 -42.5, 540 -47.83, 540 -58.5 M540 -58.5 C540 -64.85, 540 -71.19, 540 -85 M540 -58.5 C540 -66.37, 540 -74.23, 540 -85" stroke="#1e1e1e" stroke-width="1" fill="none"></path></g></g><mask></mask><g stroke-linecap="round"><g transform="translate(629.9 564.5) rotate(0 160 -42.5)"><path d="M0 0 C0 -6.35, 0 -12.69, 0 -26.5 M0 0 C0 -7.87, 0 -15.73, 0 -26.5 M0 -26.5 C0 -37.17, 5.33 -42.5, 16 -42.5 M0 -26.5 C0 -37.17, 5.33 -42.5, 16 -42.5 M16 -42.5 C100.73 -42.5, 185.46 -42.5, 304 -42.5 M16 -42.5 C123.48 -42.5, 230.96 -42.5, 304 -42.5 M304 -42.5 C314.67 -42.5, 320 -47.83, 320 -58.5 M304 -42.5 C314.67 -42.5, 320 -47.83, 320 -58.5 M320 -58.5 C320 -65.06, 320 -71.62, 320 -85 M320 -58.5 C320 -67.99, 320 -77.48, 320 -85" stroke="#1e1e1e" stroke-width="1" fill="none"></path></g></g><mask></mask><g stroke-linecap="round"><g transform="translate(849.9 564.5) rotate(0 50.000000000000014 -42.5)"><path d="M0 0 C0 -5.66, 0 -11.32, 0 -26.5 M0 0 C0 -9.3, 0 -18.6, 0 -26.5 M0 -26.5 C0 -37.17, 5.33 -42.5, 16 -42.5 M0 -26.5 C0 -37.17, 5.33 -42.5, 16 -42.5 M16 -42.5 C33.66 -42.5, 51.32 -42.5, 84 -42.5 M16 -42.5 C34.76 -42.5, 53.52 -42.5, 84 -42.5 M84 -42.5 C94.67 -42.5, 100 -47.83, 100 -58.5 M84 -42.5 C94.67 -42.5, 100 -47.83, 100 -58.5 M100 -58.5 C100 -65.08, 100 -71.65, 100 -85 M100 -58.5 C100 -65.27, 100 -72.04, 100 -85" stroke="#1e1e1e" stroke-width="1" fill="none"></path></g></g><mask></mask><g stroke-linecap="round" transform="translate(970 570) rotate(0 100 40)"><path d="M0 0 L200 0 L200 80 L0 80" stroke="none" stroke-width="0" fill="#ffffff"></path><path d="M0 0 C48.71 0, 97.42 0, 200 0 M0 0 C69.66 0, 139.33 0, 200 0 M200 0 C200 23.2, 200 46.41, 200 80 M200 0 C200 28.03, 200 56.05, 200 80 M200 80 C141.54 80, 83.07 80, 0 80 M200 80 C153.51 80, 107.03 80, 0 80 M0 80 C0 51.87, 0 23.73, 0 0 M0 80 C0 60.66, 0 41.32, 0 0" stroke="#1e1e1e" stroke-width="1" fill="none"></path></g><g transform="translate(975.306640625 596.2) rotate(0 94.693359375 13.799999999999997)"><text x="94.693359375" y="10.140234374999999" font-family="Helvetica, sans-serif, Segoe UI Emoji" font-size="12px" fill="#1e1e1e" text-anchor="middle" style="white-space: pre;" direction="ltr" dominant-baseline="alphabetic">kernel.org mirror is one of the</text><text x="94.693359375" y="23.940234374999996" font-family="Helvetica, sans-serif, Segoe UI Emoji" font-size="12px" fill="#1e1e1e" text-anchor="middle" style="white-space: pre;" direction="ltr" dominant-baseline="alphabetic">preset mirrors to search for artifacts</text></g><g stroke-linecap="round" transform="translate(1190 570) rotate(0 100 40)"><path d="M0 0 L200 0 L200 80 L0 80" stroke="none" stroke-width="0" fill="#ffffff"></path><path d="M0 0 C63.92 0, 127.84 0, 200 0 M0 0 C46.56 0, 93.12 0, 200 0 M200 0 C200 27.69, 200 55.38, 200 80 M200 0 C200 16.63, 200 33.26, 200 80 M200 80 C128.18 80, 56.36 80, 0 80 M200 80 C158.41 80, 116.83 80, 0 80 M0 80 C0 62.19, 0 44.39, 0 0 M0 80 C0 58.85, 0 37.69, 0 0" stroke="#1e1e1e" stroke-width="1" fill="none"></path></g><g transform="translate(1197.966796875 582.4) rotate(0 92.033203125 27.599999999999994)"><text x="92.033203125" y="10.140234374999999" font-family="Helvetica, sans-serif, Segoe UI Emoji" font-size="12px" fill="#1e1e1e" text-anchor="middle" style="white-space: pre;" direction="ltr" dominant-baseline="alphabetic">crosstool-ng will search for known-</text><text x="92.033203125" y="23.940234374999996" font-family="Helvetica, sans-serif, Segoe UI Emoji" font-size="12px" fill="#1e1e1e" text-anchor="middle" style="white-space: pre;" direction="ltr" dominant-baseline="alphabetic">good artifacts from set of mirrors,</text><text x="92.033203125" y="37.740234375" font-family="Helvetica, sans-serif, Segoe UI Emoji" font-size="12px" fill="#1e1e1e" text-anchor="middle" style="white-space: pre;" direction="ltr" dominant-baseline="alphabetic">built-in and custom, trying each</text><text x="92.033203125" y="51.540234375" font-family="Helvetica, sans-serif, Segoe UI Emoji" font-size="12px" fill="#1e1e1e" text-anchor="middle" style="white-space: pre;" direction="ltr" dominant-baseline="alphabetic">mirror</text></g><g stroke-linecap="round"><g transform="translate(1069.9 564.5) rotate(0 -60.00000000000003 -42.5)"><path d="M0 0 C0 -7.73, 0 -15.47, 0 -26.5 M0 0 C0 -9.56, 0 -19.12, 0 -26.5 M0 -26.5 C0 -37.17, -5.33 -42.5, -16 -42.5 M0 -26.5 C0 -37.17, -5.33 -42.5, -16 -42.5 M-16 -42.5 C-36.7 -42.5, -57.4 -42.5, -104 -42.5 M-16 -42.5 C-35.04 -42.5, -54.09 -42.5, -104 -42.5 M-104 -42.5 C-114.67 -42.5, -120 -47.83, -120 -58.5 M-104 -42.5 C-114.67 -42.5, -120 -47.83, -120 -58.5 M-120 -58.5 C-120 -68.31, -120 -78.12, -120 -85 M-120 -58.5 C-120 -67.8, -120 -77.11, -120 -85" stroke="#1e1e1e" stroke-width="1" fill="none"></path></g></g><mask></mask><g stroke-linecap="round"><g transform="translate(1289.9 564.5) rotate(0 -170.00000000000006 -42.5)"><path d="M0 0 C0 -9.02, 0 -18.04, 0 -26.5 M0 0 C0 -10.1, 0 -20.2, 0 -26.5 M0 -26.5 C0 -37.17, -5.33 -42.5, -16 -42.5 M0 -26.5 C0 -37.17, -5.33 -42.5, -16 -42.5 M-16 -42.5 C-108.06 -42.5, -200.13 -42.5, -324 -42.5 M-16 -42.5 C-137.98 -42.5, -259.97 -42.5, -324 -42.5 M-324 -42.5 C-334.67 -42.5, -340 -47.83, -340 -58.5 M-324 -42.5 C-334.67 -42.5, -340 -47.83, -340 -58.5 M-340 -58.5 C-340 -67.34, -340 -76.17, -340 -85 M-340 -58.5 C-340 -64.35, -340 -70.21, -340 -85" stroke="#1e1e1e" stroke-width="1" fill="none"></path></g></g><mask></mask><g stroke-linecap="round"><g transform="translate(209.89999999999998 744.5) rotate(0 430 -44.5)"><path d="M0 0 C0 -5.96, 0 -11.93, 0 -28.5 M0 0 C0 -6.58, 0 -13.15, 0 -28.5 M0 -28.5 C0 -39.17, 5.33 -44.5, 16 -44.5 M0 -28.5 C0 -39.17, 5.33 -44.5, 16 -44.5 M16 -44.5 C267.93 -44.5, 519.85 -44.5, 844 -44.5 M16 -44.5 C254.52 -44.5, 493.04 -44.5, 844 -44.5 M844 -44.5 C854.67 -44.5, 860 -49.83, 860 -60.5 M844 -44.5 C854.67 -44.5, 860 -49.83, 860 -60.5 M860 -60.5 C860 -66.99, 860 -73.48, 860 -89 M860 -60.5 C860 -69.52, 860 -78.54, 860 -89" stroke="#1e1e1e" stroke-width="1" fill="none"></path></g><g transform="translate(209.89999999999998 744.5) rotate(0 430 -44.5)"><path d="M860 -89 L866.34 -75.41 L853.66 -75.41 L860 -89" stroke="none" stroke-width="0" fill="#1e1e1e" fill-rule="evenodd"></path><path d="M860 -89 C861.33 -86.16, 862.65 -83.31, 866.34 -75.41 M860 -89 C861.46 -85.86, 862.93 -82.73, 866.34 -75.41 M866.34 -75.41 C863.5 -75.41, 860.67 -75.41, 853.66 -75.41 M866.34 -75.41 C863.29 -75.41, 860.24 -75.41, 853.66 -75.41 M853.66 -75.41 C855.86 -80.13, 858.07 -84.86, 860 -89 M853.66 -75.41 C855.31 -78.94, 856.96 -82.47, 860 -89 M860 -89 C860 -89, 860 -89, 860 -89 M860 -89 C860 -89, 860 -89, 860 -89" stroke="#1e1e1e" stroke-width="1" fill="none"></path></g></g><mask></mask><g stroke-linecap="round" transform="translate(610 250) rotate(0 100 12)"><path d="M0 0 L200 0 L200 24 L0 24" stroke="none" stroke-width="0" fill="#ffec99"></path><path d="M0 0 C69.15 0, 138.29 0, 200 0 M0 0 C50.99 0, 101.97 0, 200 0 M200 0 C200 8.38, 200 16.75, 200 24 M200 0 C200 6.11, 200 12.23, 200 24 M200 24 C149.5 24, 99.01 24, 0 24 M200 24 C159.97 24, 119.94 24, 0 24 M0 24 C0 18.52, 0 13.04, 0 0 M0 24 C0 18.33, 0 12.66, 0 0" stroke="#1e1e1e" stroke-width="1" fill="none"></path></g><g transform="translate(697.33203125 255.10000000000002) rotate(0 12.66796875 6.899999999999977)"><text x="12.66796875" y="10.140234374999999" font-family="Helvetica, sans-serif, Segoe UI Emoji" font-size="12px" fill="#1e1e1e" text-anchor="middle" style="white-space: pre;" direction="ltr" dominant-baseline="alphabetic">AND</text></g><g stroke-linecap="round"><g transform="translate(709.9 244.4999999999999) rotate(0 0 -15.499999999999943)"><path d="M0 0 C0 -8.27, 0 -16.54, 0 -31 M0 0 C0 -9.75, 0 -19.5, 0 -31" stroke="#1e1e1e" stroke-width="1" fill="none"></path></g><g transform="translate(709.9 244.4999999999999) rotate(0 0 -15.499999999999943)"><path d="M0 -31 L6.34 -17.41 L-6.34 -17.41 L0 -31" stroke="none" stroke-width="0" fill="#1e1e1e" fill-rule="evenodd"></path><path d="M0 -31 C1.69 -27.37, 3.38 -23.75, 6.34 -17.41 M0 -31 C1.99 -26.72, 3.99 -22.45, 6.34 -17.41 M6.34 -17.41 C1.53 -17.41, -3.27 -17.41, -6.34 -17.41 M6.34 -17.41 C2.28 -17.41, -1.77 -17.41, -6.34 -17.41 M-6.34 -17.41 C-3.97 -22.48, -1.61 -27.55, 0 -31 M-6.34 -17.41 C-4.94 -20.41, -3.54 -23.41, 0 -31 M0 -31 C0 -31, 0 -31, 0 -31 M0 -31 C0 -31, 0 -31, 0 -31" stroke="#1e1e1e" stroke-width="1" fill="none"></path></g></g><mask></mask><g stroke-linecap="round" transform="translate(310 370) rotate(0 200 19)"><path d="M0 0 L400 0 L400 38 L0 38" stroke="none" stroke-width="0" fill="#ffffff"></path><path d="M0 0 C101.14 0, 202.29 0, 400 0 M0 0 C115.44 0, 230.88 0, 400 0 M400 0 C400 15.04, 400 30.08, 400 38 M400 0 C400 13.62, 400 27.25, 400 38 M400 38 C318.4 38, 236.8 38, 0 38 M400 38 C305.33 38, 210.66 38, 0 38 M0 38 C0 28.49, 0 18.97, 0 0 M0 38 C0 28.31, 0 18.62, 0 0" stroke="#1e1e1e" stroke-width="1" fill="none"></path></g><g transform="translate(420.6240234375 382.1) rotate(0 89.3759765625 6.900000000000006)"><text x="89.3759765625" y="10.140234374999999" font-family="Helvetica, sans-serif, Segoe UI Emoji" font-size="12px" fill="#1e1e1e" text-anchor="middle" style="white-space: pre;" direction="ltr" dominant-baseline="alphabetic">failing dist-* jobs use crosstool-ng</text></g><g stroke-linecap="round"><g transform="translate(509.9 364.5) rotate(0 100.00000000000001 -42.50000000000006)"><path d="M0 0 C0 -10.05, 0 -20.11, 0 -26.5 M0 0 C0 -5.85, 0 -11.71, 0 -26.5 M0 -26.5 C0 -37.17, 5.33 -42.5, 16 -42.5 M0 -26.5 C0 -37.17, 5.33 -42.5, 16 -42.5 M16 -42.5 C54.36 -42.5, 92.72 -42.5, 184 -42.5 M16 -42.5 C78.87 -42.5, 141.73 -42.5, 184 -42.5 M184 -42.5 C194.67 -42.5, 200 -47.83, 200 -58.5 M184 -42.5 C194.67 -42.5, 200 -47.83, 200 -58.5 M200 -58.5 C200 -68.9, 200 -79.3, 200 -85 M200 -58.5 C200 -68.6, 200 -78.71, 200 -85" stroke="#1e1e1e" stroke-width="1" fill="none"></path></g></g><mask></mask><g stroke-linecap="round"><g transform="translate(949.9 364.5) rotate(0 -120 -42.50000000000006)"><path d="M0 0 C0 -5.98, 0 -11.96, 0 -26.5 M0 0 C0 -6.77, 0 -13.54, 0 -26.5 M0 -26.5 C0 -37.17, -5.33 -42.5, -16 -42.5 M0 -26.5 C0 -37.17, -5.33 -42.5, -16 -42.5 M-16 -42.5 C-60.84 -42.5, -105.68 -42.5, -224 -42.5 M-16 -42.5 C-78.86 -42.5, -141.72 -42.5, -224 -42.5 M-224 -42.5 C-234.67 -42.5, -240 -47.83, -240 -58.5 M-224 -42.5 C-234.67 -42.5, -240 -47.83, -240 -58.5 M-240 -58.5 C-240 -64.19, -240 -69.88, -240 -85 M-240 -58.5 C-240 -68.68, -240 -78.86, -240 -85" stroke="#1e1e1e" stroke-width="1" fill="none"></path></g></g><mask></mask></svg>