<svg version="1.1" xmlns="http://www.w3.org/2000/svg" viewBox="0 0 220 280" width="220" height="280" class="excalidraw-svg"><!-- svg-source:excalidraw --><metadata></metadata><defs><style class="style-fonts">
      </style></defs><rect x="0" y="0" width="220" height="280" fill="#ffffff"></rect><g stroke-linecap="round" transform="translate(10 10) rotate(0 100 20)"><path d="M0 0 L200 0 L200 40 L0 40" stroke="none" stroke-width="0" fill="#ffc9c9"></path><path d="M0 0 C55.62 0, 111.24 0, 200 0 M0 0 C71.58 0, 143.16 0, 200 0 M200 0 C200 15.65, 200 31.3, 200 40 M200 0 C200 12.54, 200 25.08, 200 40 M200 40 C131.66 40, 63.33 40, 0 40 M200 40 C130.58 40, 61.15 40, 0 40 M0 40 C0 30, 0 20.01, 0 0 M0 40 C0 28.78, 0 17.56, 0 0" stroke="#1e1e1e" stroke-width="1" fill="none"></path></g><g transform="translate(57.646484375 23.100000000000023) rotate(0 52.353515625 6.900000000000006)"><text x="52.353515625" y="10.140234374999999" font-family="Helvetica, sans-serif, Segoe UI Emoji" font-size="12px" fill="#1e1e1e" text-anchor="middle" style="white-space: pre;" direction="ltr" dominant-baseline="alphabetic">stdarch CI flakiness</text></g><g stroke-linecap="round" transform="translate(10 90) rotate(0 100 30)"><path d="M0 0 L200 0 L200 60 L0 60" stroke="none" stroke-width="0" fill="#d0bfff"></path><path d="M0 0 C54.87 0, 109.74 0, 200 0 M0 0 C78.49 0, 156.99 0, 200 0 M200 0 C200 14.06, 200 28.12, 200 60 M200 0 C200 23.21, 200 46.41, 200 60 M200 60 C150.04 60, 100.07 60, 0 60 M200 60 C144.19 60, 88.37 60, 0 60 M0 60 C0 40.44, 0 20.87, 0 0 M0 60 C0 37.05, 0 14.09, 0 0" stroke="#1e1e1e" stroke-width="1" fill="none"></path></g><g transform="translate(15.0693359375 99.30000000000001) rotate(0 94.9306640625 20.69999999999999)"><text x="94.9306640625" y="10.140234374999999" font-family="Helvetica, sans-serif, Segoe UI Emoji" font-size="12px" fill="#1e1e1e" text-anchor="middle" style="white-space: pre;" direction="ltr" dominant-baseline="alphabetic">Directly downloading LLVM artifacts</text><text x="94.9306640625" y="23.940234374999996" font-family="Helvetica, sans-serif, Segoe UI Emoji" font-size="12px" fill="#1e1e1e" text-anchor="middle" style="white-space: pre;" direction="ltr" dominant-baseline="alphabetic">from kernel.org mirror sometimes</text><text x="94.9306640625" y="37.740234375" font-family="Helvetica, sans-serif, Segoe UI Emoji" font-size="12px" fill="#1e1e1e" text-anchor="middle" style="white-space: pre;" direction="ltr" dominant-baseline="alphabetic">failed</text></g><g stroke-linecap="round"><g transform="translate(110.01999999999998 84.5) rotate(0 0 -14.5)"><path d="M0 0 C0 -4.83, 0 -24.17, 0 -29 M0 0 C0 -4.83, 0 -24.17, 0 -29" stroke="#1e1e1e" stroke-width="1" fill="none"></path></g><g transform="translate(110.01999999999998 84.5) rotate(0 0 -14.5)"><path d="M0 -29 L6.13 -15.86 L-6.13 -15.86 L0 -29" stroke="none" stroke-width="0" fill="#1e1e1e" fill-rule="evenodd"></path><path d="M0 -29 C1.75 -25.24, 3.5 -21.49, 6.13 -15.86 M0 -29 C1.83 -25.08, 3.66 -21.16, 6.13 -15.86 M6.13 -15.86 C2.93 -15.86, -0.26 -15.86, -6.13 -15.86 M6.13 -15.86 C1.66 -15.86, -2.8 -15.86, -6.13 -15.86 M-6.13 -15.86 C-4.42 -19.51, -2.72 -23.17, 0 -29 M-6.13 -15.86 C-4.69 -18.93, -3.26 -22.01, 0 -29 M0 -29 C0 -29, 0 -29, 0 -29 M0 -29 C0 -29, 0 -29, 0 -29" stroke="#1e1e1e" stroke-width="1" fill="none"></path></g></g><mask></mask><g stroke-linecap="round" transform="translate(10 190) rotate(0 100 40)"><path d="M0 0 C0 0, 0 0, 0 0 M0 0 C0 0, 0 0, 0 0 M-0.26 6.4 C0.98 4.97, 2.22 3.54, 4.99 0.36 M-0.26 6.4 C1.58 4.28, 3.43 2.15, 4.99 0.36 M0.13 12.04 C4.09 7.49, 8.04 2.95, 10.63 -0.03 M0.13 12.04 C3.22 8.49, 6.31 4.94, 10.63 -0.03 M-0.13 18.44 C3.66 14.08, 7.45 9.72, 15.62 0.33 M-0.13 18.44 C4.98 12.57, 10.08 6.69, 15.62 0.33 M0.27 24.08 C6.41 17.01, 12.56 9.94, 21.26 -0.07 M0.27 24.08 C6 17.48, 11.74 10.88, 21.26 -0.07 M0 30.48 C9.31 19.77, 18.62 9.07, 26.25 0.29 M0 30.48 C9.01 20.12, 18.01 9.76, 26.25 0.29 M-0.26 36.88 C9.36 25.81, 18.98 14.75, 31.89 -0.1 M-0.26 36.88 C9.78 25.33, 19.82 13.78, 31.89 -0.1 M0.14 42.52 C12.8 27.95, 25.46 13.39, 36.88 0.26 M0.14 42.52 C12.72 28.04, 25.31 13.57, 36.88 0.26 M-0.12 48.92 C14.72 31.84, 29.56 14.77, 42.52 -0.14 M-0.12 48.92 C16.28 30.05, 32.68 11.18, 42.52 -0.14 M0.27 54.56 C14.39 38.32, 28.51 22.07, 47.51 0.22 M0.27 54.56 C18.46 33.64, 36.65 12.71, 47.51 0.22 M0.01 60.96 C11.35 47.91, 22.69 34.87, 53.15 -0.17 M0.01 60.96 C15.52 43.11, 31.04 25.27, 53.15 -0.17 M-0.25 67.36 C13.04 52.07, 26.32 36.79, 58.14 0.19 M-0.25 67.36 C15.01 49.8, 30.27 32.25, 58.14 0.19 M0.14 73 C18.69 51.67, 37.23 30.34, 63.78 -0.21 M0.14 73 C16.93 53.69, 33.72 34.37, 63.78 -0.21 M-0.12 79.4 C17.97 58.59, 36.05 37.79, 68.77 0.15 M-0.12 79.4 C19.87 56.4, 39.86 33.4, 68.77 0.15 M4.21 80.51 C32.29 48.22, 60.36 15.92, 74.41 -0.24 M4.21 80.51 C29.36 51.59, 54.5 22.66, 74.41 -0.24 M9.86 80.12 C27.78 59.5, 45.7 38.89, 79.4 0.12 M9.86 80.12 C32.01 54.64, 54.16 29.15, 79.4 0.12 M14.84 80.48 C41.43 49.89, 68.02 19.3, 85.04 -0.28 M14.84 80.48 C33.17 59.39, 51.5 38.31, 85.04 -0.28 M20.49 80.08 C47.52 48.98, 74.56 17.88, 90.03 0.08 M20.49 80.08 C42.83 54.37, 65.18 28.66, 90.03 0.08 M25.47 80.44 C45.8 57.05, 66.14 33.67, 95.67 -0.31 M25.47 80.44 C45.59 57.3, 65.71 34.16, 95.67 -0.31 M31.12 80.05 C55.69 51.78, 80.27 23.51, 100.66 0.05 M31.12 80.05 C45.16 63.89, 59.2 47.74, 100.66 0.05 M36.1 80.41 C51.27 62.96, 66.43 45.52, 106.3 -0.34 M36.1 80.41 C62.56 49.97, 89.02 19.53, 106.3 -0.34 M41.75 80.01 C67.55 50.33, 93.35 20.65, 111.29 0.02 M41.75 80.01 C68.97 48.69, 96.2 17.37, 111.29 0.02 M46.73 80.37 C65.05 59.3, 83.37 38.23, 116.27 0.38 M46.73 80.37 C67.77 56.18, 88.8 31.98, 116.27 0.38 M52.38 79.98 C79.02 49.33, 105.66 18.69, 121.92 -0.02 M52.38 79.98 C69.73 60.02, 87.08 40.06, 121.92 -0.02 M57.36 80.34 C82.33 51.62, 107.3 22.9, 126.91 0.34 M57.36 80.34 C75.56 59.41, 93.76 38.48, 126.91 0.34 M62.35 80.7 C80.09 60.29, 97.83 39.88, 132.55 -0.05 M62.35 80.7 C80.84 59.42, 99.34 38.15, 132.55 -0.05 M67.99 80.31 C85.52 60.14, 103.05 39.98, 137.54 0.31 M67.99 80.31 C87.55 57.81, 107.1 35.32, 137.54 0.31 M72.98 80.67 C98.61 51.18, 124.23 21.7, 143.18 -0.09 M72.98 80.67 C90.46 60.55, 107.95 40.44, 143.18 -0.09 M78.62 80.27 C100.43 55.18, 122.24 30.1, 148.17 0.27 M78.62 80.27 C93.62 63.01, 108.63 45.76, 148.17 0.27 M83.61 80.63 C99.55 62.29, 115.5 43.95, 153.81 -0.12 M83.61 80.63 C108.19 52.36, 132.77 24.08, 153.81 -0.12 M89.25 80.24 C112.66 53.32, 136.06 26.39, 158.8 0.24 M89.25 80.24 C113.46 52.38, 137.68 24.53, 158.8 0.24 M94.24 80.6 C113.03 58.98, 131.83 37.36, 164.44 -0.16 M94.24 80.6 C110.99 61.33, 127.74 42.06, 164.44 -0.16 M99.88 80.2 C123.22 53.35, 146.56 26.5, 169.43 0.2 M99.88 80.2 C126.97 49.04, 154.05 17.89, 169.43 0.2 M104.87 80.56 C121.55 61.37, 138.23 42.18, 175.07 -0.19 M104.87 80.56 C126.94 55.17, 149.02 29.78, 175.07 -0.19 M110.51 80.17 C134.69 52.36, 158.86 24.55, 180.06 0.17 M110.51 80.17 C129.9 57.86, 149.29 35.56, 180.06 0.17 M115.5 80.53 C130.2 63.61, 144.9 46.7, 185.7 -0.23 M115.5 80.53 C136.97 55.83, 158.45 31.12, 185.7 -0.23 M121.14 80.13 C137.21 61.66, 153.27 43.18, 190.69 0.13 M121.14 80.13 C147.8 49.47, 174.46 18.8, 190.69 0.13 M126.13 80.49 C152.64 50, 179.15 19.5, 196.33 -0.26 M126.13 80.49 C145.03 58.75, 163.93 37.01, 196.33 -0.26 M131.77 80.1 C149.93 59.21, 168.1 38.32, 200 1.61 M131.77 80.1 C152.14 56.67, 172.5 33.25, 200 1.61 M136.76 80.46 C153.04 61.73, 169.33 43, 199.74 8.01 M136.76 80.46 C161.25 52.28, 185.75 24.1, 199.74 8.01 M142.4 80.06 C162.93 56.45, 183.45 32.84, 200.14 13.65 M142.4 80.06 C156.7 63.61, 171 47.17, 200.14 13.65 M147.39 80.42 C162.63 62.89, 177.88 45.35, 199.88 20.05 M147.39 80.42 C167.2 57.64, 187.01 34.85, 199.88 20.05 M153.03 80.03 C163.57 67.91, 174.11 55.78, 200.27 25.69 M153.03 80.03 C166.38 64.67, 179.73 49.32, 200.27 25.69 M158.02 80.39 C167.82 69.12, 177.62 57.84, 200.01 32.09 M158.02 80.39 C169.59 67.08, 181.16 53.77, 200.01 32.09 M163.66 80 C171.42 71.07, 179.18 62.14, 199.75 38.49 M163.66 80 C173.87 68.25, 184.08 56.51, 199.75 38.49 M168.65 80.36 C180.28 66.97, 191.92 53.59, 200.14 44.13 M168.65 80.36 C176.58 71.23, 184.52 62.1, 200.14 44.13 M173.64 80.72 C181.49 71.68, 189.34 62.65, 199.88 50.53 M173.64 80.72 C182.99 69.95, 192.35 59.19, 199.88 50.53 M179.28 80.32 C185.63 73.02, 191.98 65.72, 200.27 56.17 M179.28 80.32 C183.56 75.4, 187.83 70.49, 200.27 56.17 M184.27 80.68 C188.45 75.87, 192.63 71.06, 200.01 62.57 M184.27 80.68 C188.04 76.34, 191.81 72.01, 200.01 62.57 M189.91 80.29 C193.43 76.23, 196.96 72.18, 199.75 68.97 M189.91 80.29 C193.41 76.26, 196.91 72.24, 199.75 68.97 M194.9 80.65 C196.61 78.68, 198.31 76.72, 200.15 74.61 M194.9 80.65 C196.45 78.86, 198 77.08, 200.15 74.61 M-0.37 79.68 C-0.37 79.68, -0.37 79.68, -0.37 79.68 M-0.37 79.68 C-0.37 79.68, -0.37 79.68, -0.37 79.68 M6.03 79.94 C4.14 78.3, 2.26 76.66, -0.01 74.69 M6.03 79.94 C4.11 78.28, 2.2 76.61, -0.01 74.69 M12.43 80.2 C8.21 76.54, 3.99 72.87, 0.35 69.71 M12.43 80.2 C10 78.09, 7.57 75.98, 0.35 69.71 M18.07 79.81 C12.95 75.36, 7.84 70.91, -0.04 64.06 M18.07 79.81 C12.18 74.69, 6.28 69.56, -0.04 64.06 M24.47 80.07 C16.11 72.81, 7.76 65.54, 0.32 59.08 M24.47 80.07 C15.15 71.97, 5.84 63.87, 0.32 59.08 M30.11 79.68 C20.68 71.48, 11.25 63.28, -0.07 53.43 M30.11 79.68 C19.01 70.03, 7.91 60.38, -0.07 53.43 M36.51 79.94 C22.49 67.75, 8.47 55.56, 0.29 48.45 M36.51 79.94 C23.76 68.85, 11.01 57.77, 0.29 48.45 M42.91 80.2 C29.94 68.93, 16.97 57.65, -0.11 42.8 M42.91 80.2 C29.09 68.19, 15.28 56.18, -0.11 42.8 M48.55 79.81 C38.53 71.09, 28.51 62.38, 0.25 37.82 M48.55 79.81 C30.89 64.45, 13.23 49.1, 0.25 37.82 M54.95 80.07 C34.53 62.31, 14.1 44.56, -0.14 32.17 M54.95 80.07 C38.95 66.16, 22.96 52.25, -0.14 32.17 M60.59 79.67 C44.63 65.8, 28.67 51.92, 0.22 27.19 M60.59 79.67 C47.28 68.1, 33.96 56.52, 0.22 27.19 M66.99 79.93 C49.32 64.57, 31.65 49.21, -0.18 21.54 M66.99 79.93 C53 67.77, 39.01 55.61, -0.18 21.54 M73.39 80.2 C48.75 58.78, 24.12 37.36, 0.18 16.56 M73.39 80.2 C55.92 65.01, 38.46 49.83, 0.18 16.56 M79.03 79.8 C51.83 56.15, 24.62 32.5, -0.21 10.91 M79.03 79.8 C60.34 63.55, 41.65 47.31, -0.21 10.91 M85.43 80.06 C57.74 55.99, 30.05 31.92, 0.15 5.93 M85.43 80.06 C62.42 60.06, 39.41 40.05, 0.15 5.93 M91.83 80.32 C55.17 48.46, 18.51 16.59, -0.25 0.28 M91.83 80.32 C58.48 51.34, 25.13 22.35, -0.25 0.28 M97.47 79.93 C74.13 59.64, 50.79 39.35, 4.64 -0.77 M97.47 79.93 C70.32 56.33, 43.17 32.73, 4.64 -0.77 M103.87 80.19 C81.95 61.14, 60.03 42.09, 11.04 -0.5 M103.87 80.19 C84.88 63.69, 65.9 47.18, 11.04 -0.5 M109.51 79.8 C85.45 58.88, 61.39 37.97, 17.44 -0.24 M109.51 79.8 C89.92 62.77, 70.33 45.74, 17.44 -0.24 M115.91 80.06 C89.21 56.85, 62.51 33.64, 23.08 -0.64 M115.91 80.06 C96.58 63.25, 77.25 46.45, 23.08 -0.64 M122.31 80.32 C101.83 62.51, 81.34 44.71, 29.48 -0.38 M122.31 80.32 C97.69 58.92, 73.08 37.53, 29.48 -0.38 M127.95 79.92 C108.93 63.39, 89.9 46.85, 35.12 -0.77 M127.95 79.92 C105.04 60.01, 82.13 40.09, 35.12 -0.77 M134.35 80.19 C104.86 54.55, 75.37 28.92, 41.52 -0.51 M134.35 80.19 C114.65 63.06, 94.95 45.94, 41.52 -0.51 M139.99 79.79 C115.84 58.8, 91.69 37.81, 47.92 -0.25 M139.99 79.79 C119.56 62.03, 99.13 44.27, 47.92 -0.25 M146.39 80.05 C122.03 58.87, 97.66 37.7, 53.56 -0.64 M146.39 80.05 C114.4 52.25, 82.42 24.45, 53.56 -0.64 M152.79 80.31 C119.77 51.61, 86.75 22.91, 59.96 -0.38 M152.79 80.31 C128.36 59.08, 103.94 37.85, 59.96 -0.38 M158.43 79.92 C131.78 56.76, 105.14 33.59, 65.6 -0.78 M158.43 79.92 C132.34 57.24, 106.25 34.56, 65.6 -0.78 M164.83 80.18 C145.98 63.8, 127.13 47.41, 72 -0.51 M164.83 80.18 C134.34 53.68, 103.85 27.17, 72 -0.51 M170.47 79.79 C138.68 52.15, 106.89 24.52, 78.4 -0.25 M170.47 79.79 C136.54 50.29, 102.6 20.79, 78.4 -0.25 M176.87 80.05 C144.92 52.27, 112.97 24.5, 84.04 -0.65 M176.87 80.05 C157.95 63.6, 139.03 47.15, 84.04 -0.65 M183.27 80.31 C154.22 55.06, 125.18 29.82, 90.44 -0.39 M183.27 80.31 C157.07 57.54, 130.88 34.77, 90.44 -0.39 M188.91 79.91 C157.28 52.42, 125.65 24.92, 96.08 -0.78 M188.91 79.91 C160.75 55.44, 132.59 30.96, 96.08 -0.78 M195.31 80.18 C159.34 48.91, 123.38 17.65, 102.48 -0.52 M195.31 80.18 C174.41 62.01, 153.52 43.85, 102.48 -0.52 M200.2 79.13 C165.83 49.25, 131.47 19.38, 108.88 -0.26 M200.2 79.13 C175.6 57.75, 151.01 36.37, 108.88 -0.26 M200.56 74.14 C175.74 52.57, 150.92 30.99, 114.52 -0.65 M200.56 74.14 C172.29 49.57, 144.03 25, 114.52 -0.65 M200.16 68.5 C179.85 50.84, 159.55 33.19, 120.92 -0.39 M200.16 68.5 C170.68 42.87, 141.2 17.24, 120.92 -0.39 M200.52 63.51 C181.49 46.97, 162.46 30.43, 126.56 -0.79 M200.52 63.51 C181.89 47.31, 163.25 31.11, 126.56 -0.79 M200.88 58.52 C186.76 46.25, 172.64 33.97, 132.96 -0.52 M200.88 58.52 C179.83 40.22, 158.78 21.92, 132.96 -0.52 M200.49 52.88 C184.77 39.21, 169.05 25.55, 139.35 -0.26 M200.49 52.88 C177.08 32.53, 153.67 12.18, 139.35 -0.26 M200.85 47.89 C185.19 34.28, 169.52 20.66, 145 -0.66 M200.85 47.89 C189.13 37.71, 177.42 27.52, 145 -0.66 M200.45 42.25 C182.14 26.33, 163.84 10.42, 151.4 -0.4 M200.45 42.25 C188.82 32.14, 177.19 22.02, 151.4 -0.4 M200.81 37.26 C185.72 24.14, 170.62 11.02, 157.04 -0.79 M200.81 37.26 C190.91 28.66, 181.01 20.05, 157.04 -0.79 M200.42 31.62 C192.56 24.79, 184.71 17.96, 163.44 -0.53 M200.42 31.62 C190.86 23.31, 181.31 15.01, 163.44 -0.53 M200.78 26.63 C191.68 18.72, 182.58 10.81, 169.83 -0.27 M200.78 26.63 C190.19 17.43, 179.61 8.23, 169.83 -0.27 M200.38 20.99 C192.82 14.42, 185.26 7.84, 175.48 -0.66 M200.38 20.99 C194.94 16.26, 189.5 11.53, 175.48 -0.66 M200.74 16 C196.16 12.02, 191.57 8.03, 181.88 -0.4 M200.74 16 C193.79 9.96, 186.84 3.92, 181.88 -0.4 M200.35 10.36 C196.53 7.04, 192.72 3.72, 187.52 -0.8 M200.35 10.36 C197.56 7.93, 194.76 5.5, 187.52 -0.8 M200.71 5.37 C198.48 3.43, 196.25 1.49, 193.92 -0.53 M200.71 5.37 C198.37 3.34, 196.03 1.31, 193.92 -0.53" stroke="#ffc9c9" stroke-width="0.5" fill="none"></path><path d="M0 0 C74.69 0, 149.38 0, 200 0 M0 0 C40.44 0, 80.88 0, 200 0 M200 0 C200 24.05, 200 48.1, 200 80 M200 0 C200 19.77, 200 39.54, 200 80 M200 80 C137.11 80, 74.22 80, 0 80 M200 80 C127.67 80, 55.33 80, 0 80 M0 80 C0 56.22, 0 32.45, 0 0 M0 80 C0 62.52, 0 45.05, 0 0" stroke="#1e1e1e" stroke-width="1" fill="none"></path></g><g transform="translate(23.6474609375 195.5) rotate(0 86.3525390625 34.5)"><text x="86.3525390625" y="10.140234374999999" font-family="Helvetica, sans-serif, Segoe UI Emoji" font-size="12px" fill="#1e1e1e" text-anchor="middle" style="white-space: pre;" direction="ltr" dominant-baseline="alphabetic">kernel.org mirror reduced</text><text x="86.3525390625" y="23.940234374999996" font-family="Helvetica, sans-serif, Segoe UI Emoji" font-size="12px" fill="#1e1e1e" text-anchor="middle" style="white-space: pre;" direction="ltr" dominant-baseline="alphabetic">connectivity/availability under</text><text x="86.3525390625" y="37.740234375" font-family="Helvetica, sans-serif, Segoe UI Emoji" font-size="12px" fill="#1e1e1e" text-anchor="middle" style="white-space: pre;" direction="ltr" dominant-baseline="alphabetic">increased stress soon after</text><text x="86.3525390625" y="51.540234375" font-family="Helvetica, sans-serif, Segoe UI Emoji" font-size="12px" fill="#1e1e1e" text-anchor="middle" style="white-space: pre;" direction="ltr" dominant-baseline="alphabetic">recovering from mirror sync infra</text><text x="86.3525390625" y="65.340234375" font-family="Helvetica, sans-serif, Segoe UI Emoji" font-size="12px" fill="#1e1e1e" text-anchor="middle" style="white-space: pre;" direction="ltr" dominant-baseline="alphabetic">outage</text></g><g stroke-linecap="round"><g transform="translate(110.01999999999998 184.5) rotate(0 0 -14.5)"><path d="M0 0 C0 -4.83, 0 -24.17, 0 -29 M0 0 C0 -4.83, 0 -24.17, 0 -29" stroke="#1e1e1e" stroke-width="1" fill="none"></path></g><g transform="translate(110.01999999999998 184.5) rotate(0 0 -14.5)"><path d="M0 -29 L6.13 -15.86 L-6.13 -15.86 L0 -29" stroke="none" stroke-width="0" fill="#1e1e1e" fill-rule="evenodd"></path><path d="M0 -29 C1.55 -25.68, 3.1 -22.36, 6.13 -15.86 M0 -29 C1.33 -26.14, 2.67 -23.28, 6.13 -15.86 M6.13 -15.86 C1.41 -15.86, -3.31 -15.86, -6.13 -15.86 M6.13 -15.86 C1.26 -15.86, -3.6 -15.86, -6.13 -15.86 M-6.13 -15.86 C-3.77 -20.92, -1.41 -25.99, 0 -29 M-6.13 -15.86 C-4.54 -19.27, -2.95 -22.68, 0 -29 M0 -29 C0 -29, 0 -29, 0 -29 M0 -29 C0 -29, 0 -29, 0 -29" stroke="#1e1e1e" stroke-width="1" fill="none"></path></g></g><mask></mask></svg>